<svg width="702" height="702" viewBox="0 0 702 702" fill="none" xmlns="http://www.w3.org/2000/svg">
<circle cx="351" cy="351" r="351" fill="white"/>
<path d="M198.252 145.033H90.8275V257.013H198.252V145.033Z" fill="#E0E0E0"/>
<path d="M190.978 145.033H83.5535V257.013H190.978V145.033Z" fill="#FAFAFA"/>
<path d="M191.01 257.047H83.5195V145H191.01V257.047ZM83.5865 256.98H190.944V145.067H83.5865V256.98Z" fill="#E0E0E0"/>
<path d="M176.536 160.087H97.9935V241.96H176.536V160.087Z" fill="white"/>
<path d="M97.9935 242.505C98.0555 242.578 97.3095 243.435 96.0555 244.758C94.8015 246.082 93.0385 247.873 91.0625 249.819C89.0855 251.766 87.2705 253.5 85.9315 254.73C84.5925 255.961 83.7295 256.689 83.6615 256.621C83.5935 256.552 84.3345 255.701 85.5895 254.377C86.8435 253.054 88.6115 251.258 90.5935 249.306C92.5745 247.354 94.3945 245.616 95.7335 244.386C97.0735 243.155 97.9315 242.431 97.9935 242.505Z" fill="#E0E0E0"/>
<path d="M176.536 242.304C176.61 242.242 177.466 242.988 178.79 244.242C180.114 245.497 181.905 247.259 183.851 249.235C185.798 251.211 187.532 253.027 188.762 254.366C189.993 255.705 190.721 256.568 190.653 256.636C190.585 256.704 189.733 255.963 188.409 254.709C187.086 253.454 185.289 251.687 183.337 249.705C181.386 247.723 179.648 245.903 178.417 244.564C177.187 243.224 176.463 242.366 176.536 242.304Z" fill="#E0E0E0"/>
<path d="M176.322 160.305C176.26 160.231 177.006 159.375 178.26 158.051C179.514 156.727 181.277 154.936 183.253 152.99C185.229 151.043 187.045 149.309 188.384 148.078C189.723 146.847 190.586 146.119 190.654 146.188C190.721 146.256 189.98 147.108 188.726 148.432C187.472 149.756 185.704 151.551 183.722 153.503C181.74 155.455 179.921 157.192 178.581 158.424C177.242 159.655 176.384 160.379 176.322 160.305Z" fill="#E0E0E0"/>
<path d="M97.7785 160.506C97.7055 160.568 96.8485 159.822 95.5255 158.568C94.2015 157.314 92.4105 155.551 90.4645 153.575C88.5175 151.598 86.7835 149.783 85.5535 148.444C84.3225 147.105 83.5945 146.242 83.6625 146.174C83.7305 146.106 84.5825 146.847 85.9065 148.101C87.2305 149.355 89.0255 151.123 90.9775 153.105C92.9295 155.087 94.6675 156.907 95.8975 158.246C97.1285 159.586 97.8525 160.444 97.7785 160.506Z" fill="#E0E0E0"/>
<path d="M176.322 241.96C176.316 241.955 176.311 241.82 176.305 241.562C176.301 241.283 176.295 240.907 176.288 240.419C176.28 239.392 176.268 237.916 176.253 235.999C176.235 232.12 176.208 226.478 176.174 219.313C176.137 204.973 176.084 184.545 176.02 160.086L176.323 160.389C153.458 160.402 126.607 160.417 98.0025 160.434H97.9945L98.3425 160.086C98.3245 190.137 98.3075 218.25 98.2935 241.959L97.9945 241.661C121.466 241.724 141.008 241.777 154.709 241.813C161.554 241.846 166.939 241.873 170.639 241.891C172.467 241.906 173.874 241.918 174.854 241.926C175.317 241.933 175.676 241.939 175.943 241.943C176.189 241.949 176.316 241.955 176.322 241.96C176.328 241.966 176.211 241.971 175.976 241.977C175.717 241.981 175.369 241.986 174.919 241.994C173.953 242.002 172.565 242.013 170.761 242.029C167.076 242.047 161.715 242.074 154.898 242.107C141.151 242.144 121.544 242.196 97.9935 242.26L97.6955 242.261V241.961C97.6815 218.252 97.6645 190.139 97.6465 160.088V159.74H97.9945H98.0025C126.606 159.756 153.458 159.771 176.323 159.785H176.627L176.626 160.088C176.562 184.628 176.509 205.122 176.472 219.509C176.437 226.645 176.411 232.264 176.392 236.127C176.377 238.019 176.365 239.475 176.357 240.488C176.35 240.961 176.344 241.327 176.34 241.598C176.333 241.844 176.328 241.966 176.322 241.96Z" fill="#E0E0E0"/>
<path d="M150.369 187.919H124.161V214.127H150.369V187.919Z" fill="#EBEBEB"/>
<path d="M193.573 496.036V544.249H264.078H341.842V496.036H193.573Z" fill="#F5F5F5"/>
<path d="M187.353 482.557V496.036H347.026V482.557H264.078H187.353Z" fill="#E0E0E0"/>
<path d="M267.189 544.249H341.842V496.036H347.026V482.557H264.078V494.789L267.189 544.249Z" fill="#E0E0E0"/>
<path d="M244.378 503.811H214.31V511.068H244.378V503.811Z" fill="#E0E0E0"/>
<path d="M249.051 520.142H210.441V535.467H249.051V520.142Z" fill="white"/>
<path d="M594.52 544.249C594.52 544.393 484.148 544.509 348.032 544.509C211.866 544.509 101.52 544.392 101.52 544.249C101.52 544.106 211.866 543.989 348.032 543.989C484.148 543.989 594.52 544.105 594.52 544.249Z" fill="#263238"/>
<path d="M609.162 201.818H145.482C141.063 201.818 137.482 205.4 137.482 209.818V432.141C137.482 436.559 141.063 440.141 145.482 440.141H609.162C613.58 440.141 617.162 436.559 617.162 432.141V209.818C617.162 205.4 613.58 201.818 609.162 201.818Z" fill="white"/>
<path d="M617.162 201.818H137.482V231.386H617.162V201.818Z" fill="#E0E0E0"/>
<path d="M617.162 440.141C617.161 438.608 617.088 348.783 616.969 201.818L617.162 202.011C491.501 202.029 322.688 202.052 137.516 202.078H137.482L137.742 201.818C137.737 285.822 137.732 366.451 137.727 440.141L137.482 439.896C417.456 440.039 614.895 440.14 617.162 440.141C614.896 440.142 417.456 440.243 137.482 440.386H137.236V440.14C137.231 366.45 137.226 285.821 137.221 201.817V201.557H137.481H137.515C322.687 201.583 491.499 201.607 617.161 201.624H617.354V201.817C617.236 348.783 617.163 438.609 617.162 440.141Z" fill="#263238"/>
<path d="M565.9 349.149H180.936C177.892 349.149 175.425 346.682 175.425 343.638V296.781C175.425 293.737 177.892 291.27 180.936 291.27H565.9C568.944 291.27 571.411 293.737 571.411 296.781V343.638C571.411 346.681 568.944 349.149 565.9 349.149Z" fill="#FAFAFA"/>
<path d="M565.9 349.149C565.886 349.101 566.724 349.248 568.14 348.641C568.824 348.32 569.653 347.787 570.312 346.864C570.986 345.962 571.449 344.664 571.359 343.167C571.348 337.178 571.331 328.356 571.31 316.996C571.303 311.314 571.296 304.997 571.287 298.083C571.271 297.216 571.351 296.339 571.126 295.506C570.92 294.67 570.517 293.868 569.923 293.216C569.34 292.557 568.589 292.033 567.742 291.733C567.323 291.569 566.876 291.488 566.428 291.43C565.98 291.398 565.511 291.403 565.042 291.405C561.291 291.408 557.395 291.412 553.36 291.416C537.217 291.427 518.835 291.44 498.517 291.455C417.237 291.475 304.962 291.501 180.959 291.531C179.107 291.521 177.286 292.549 176.386 294.171C175.92 294.967 175.694 295.888 175.686 296.808V299.7C175.686 303.553 175.686 307.394 175.686 311.222C175.686 318.878 175.685 326.484 175.685 334.035C175.685 335.923 175.685 337.807 175.685 339.687V342.505C175.686 343.457 175.645 344.362 175.926 345.215C176.462 346.918 177.91 348.314 179.65 348.726C180.5 348.964 181.428 348.874 182.369 348.892H185.16C192.595 348.893 199.97 348.894 207.28 348.894C236.521 348.899 264.726 348.904 291.595 348.909C345.332 348.93 393.722 348.949 434.361 348.965C474.996 349 507.879 349.028 530.609 349.048C541.968 349.069 550.789 349.086 556.777 349.097C559.764 349.108 562.043 349.117 563.582 349.123C565.115 349.131 565.9 349.149 565.9 349.149C565.9 349.149 565.115 349.167 563.582 349.176C562.043 349.182 559.764 349.191 556.777 349.202C550.789 349.213 541.968 349.23 530.609 349.251C507.878 349.271 474.995 349.299 434.361 349.334C393.722 349.35 345.331 349.369 291.595 349.39C264.726 349.395 236.521 349.4 207.28 349.405C199.97 349.406 192.595 349.407 185.16 349.407H182.369H180.971C180.487 349.394 179.995 349.356 179.524 349.226C177.612 348.772 176.023 347.244 175.434 345.37C175.123 344.425 175.17 343.422 175.168 342.505V339.687C175.168 337.806 175.168 335.922 175.168 334.035C175.168 326.485 175.167 318.879 175.167 311.222C175.167 307.394 175.167 303.553 175.167 299.7V296.808C175.174 295.803 175.424 294.785 175.936 293.911C176.924 292.13 178.928 290.997 180.96 291.01C304.964 291.04 417.238 291.067 498.518 291.086C518.836 291.1 537.218 291.113 553.361 291.124C557.397 291.128 561.292 291.131 565.043 291.135C565.512 291.135 565.976 291.13 566.455 291.164C566.926 291.224 567.395 291.311 567.834 291.484C568.722 291.801 569.509 292.351 570.119 293.043C570.739 293.727 571.16 294.569 571.374 295.445C571.608 296.332 571.522 297.228 571.537 298.082C571.529 304.996 571.521 311.313 571.514 316.995C571.493 328.356 571.476 337.178 571.465 343.166C571.548 344.675 571.068 346.004 570.377 346.91C569.701 347.841 568.857 348.373 568.162 348.688C567.455 349.001 566.869 349.079 566.486 349.129C566.096 349.15 565.9 349.149 565.9 349.149Z" fill="#263238"/>
<path d="M195.126 259.746V274.967H192.8L184.406 264.66V274.967H181.601V259.746H183.928L192.321 270.053V259.746H195.126Z" fill="#263238"/>
<path d="M208.67 268.161V274.967H206.104V273.553C205.452 274.554 204.191 275.119 202.451 275.119C199.798 275.119 198.124 273.662 198.124 271.64C198.124 269.704 199.429 268.182 202.951 268.182H205.952V268.008C205.952 266.421 204.995 265.486 203.06 265.486C201.755 265.486 200.407 265.921 199.538 266.639L198.473 264.66C199.712 263.703 201.517 263.225 203.387 263.225C206.735 263.225 208.67 264.812 208.67 268.161ZM205.952 271.335V269.987H203.147C201.299 269.987 200.799 270.683 200.799 271.531C200.799 272.51 201.625 273.14 203.017 273.14C204.343 273.14 205.495 272.532 205.952 271.335Z" fill="#263238"/>
<path d="M231.564 268.313V274.967H228.846V268.661C228.846 266.595 227.889 265.595 226.237 265.595C224.454 265.595 223.215 266.769 223.215 269.074V274.967H220.497V268.661C220.497 266.595 219.54 265.595 217.888 265.595C216.083 265.595 214.866 266.769 214.866 269.074V274.967H212.148V263.356H214.735V264.835C215.605 263.792 216.953 263.226 218.54 263.226C220.236 263.226 221.649 263.857 222.453 265.161C223.388 263.965 224.954 263.226 226.802 263.226C229.607 263.225 231.564 264.812 231.564 268.313Z" fill="#263238"/>
<path d="M246.02 270.031H236.91C237.236 271.727 238.649 272.814 240.672 272.814C241.976 272.814 242.998 272.401 243.825 271.553L245.282 273.227C244.238 274.467 242.608 275.119 240.607 275.119C236.715 275.119 234.192 272.618 234.192 269.161C234.192 265.704 236.736 263.225 240.194 263.225C243.586 263.225 246.065 265.595 246.065 269.226C246.064 269.444 246.042 269.77 246.02 270.031ZM236.888 268.226H243.476C243.259 266.552 241.976 265.399 240.193 265.399C238.432 265.399 237.149 266.53 236.888 268.226Z" fill="#263238"/>
<path d="M212.394 323.78V325.337H204.896V315.34H212.194V316.897H206.753V319.497H211.58V321.025H206.753V323.781H212.394V323.78Z" fill="#E0E0E0"/>
<path d="M221.802 320.966V325.337H220.017V321.195C220.017 319.839 219.346 319.181 218.203 319.181C216.932 319.181 216.075 319.952 216.075 321.481V325.337H214.289V317.711H215.989V318.696C216.574 317.996 217.503 317.625 218.617 317.625C220.445 317.624 221.802 318.667 221.802 320.966Z" fill="#E0E0E0"/>
<path d="M228.654 324.923C228.225 325.266 227.583 325.437 226.94 325.437C225.269 325.437 224.312 324.551 224.312 322.866V319.196H223.055V317.767H224.312V316.025H226.097V317.767H228.139V319.196H226.097V322.824C226.097 323.567 226.468 323.967 227.154 323.967C227.526 323.967 227.883 323.867 228.154 323.653L228.654 324.923Z" fill="#E0E0E0"/>
<path d="M237.006 322.095H231.022C231.236 323.209 232.165 323.923 233.493 323.923C234.35 323.923 235.021 323.652 235.564 323.095L236.521 324.195C235.835 325.009 234.764 325.438 233.45 325.438C230.894 325.438 229.237 323.795 229.237 321.525C229.237 319.255 230.908 317.626 233.179 317.626C235.407 317.626 237.035 319.183 237.035 321.568C237.035 321.709 237.021 321.923 237.006 322.095ZM231.008 320.91H235.335C235.192 319.81 234.35 319.053 233.179 319.053C232.022 319.053 231.179 319.795 231.008 320.91Z" fill="#E0E0E0"/>
<path d="M243.159 317.624V319.324C243.002 319.295 242.873 319.281 242.745 319.281C241.388 319.281 240.531 320.081 240.531 321.637V325.336H238.746V317.71H240.445V318.824C240.959 318.024 241.887 317.624 243.159 317.624Z" fill="#E0E0E0"/>
<path d="M255.823 317.71L252.252 325.951C251.552 327.679 250.581 328.207 249.31 328.207C248.553 328.207 247.753 327.95 247.268 327.507L247.982 326.193C248.325 326.522 248.811 326.721 249.296 326.721C249.924 326.721 250.296 326.421 250.639 325.664L250.767 325.364L247.439 317.709H249.295L251.694 323.35L254.108 317.709H255.823V317.71Z" fill="#E0E0E0"/>
<path d="M256.09 321.523C256.09 319.238 257.804 317.624 260.147 317.624C262.518 317.624 264.217 319.238 264.217 321.523C264.217 323.808 262.517 325.436 260.147 325.436C257.804 325.437 256.09 323.808 256.09 321.523ZM262.418 321.523C262.418 320.066 261.447 319.138 260.147 319.138C258.861 319.138 257.89 320.067 257.89 321.523C257.89 322.98 258.861 323.908 260.147 323.908C261.446 323.908 262.418 322.98 262.418 321.523Z" fill="#E0E0E0"/>
<path d="M273.312 317.71V325.336H271.612V324.365C271.041 325.065 270.141 325.436 269.156 325.436C267.199 325.436 265.871 324.365 265.871 322.065V317.709H267.656V321.822C267.656 323.207 268.313 323.864 269.441 323.864C270.684 323.864 271.526 323.093 271.526 321.565V317.709H273.312V317.71Z" fill="#E0E0E0"/>
<path d="M280.063 317.624V319.324C279.906 319.295 279.777 319.281 279.649 319.281C278.292 319.281 277.435 320.081 277.435 321.637V325.336H275.65V317.71H277.349V318.824C277.863 318.024 278.792 317.624 280.063 317.624Z" fill="#E0E0E0"/>
<path d="M293.098 320.966V325.337H291.313V321.195C291.313 319.839 290.642 319.181 289.499 319.181C288.228 319.181 287.371 319.952 287.371 321.481V325.337H285.585V317.711H287.285V318.696C287.87 317.996 288.799 317.625 289.913 317.625C291.741 317.624 293.098 318.667 293.098 320.966Z" fill="#E0E0E0"/>
<path d="M301.749 320.867V325.337H300.064V324.409C299.635 325.066 298.807 325.437 297.665 325.437C295.922 325.437 294.823 324.48 294.823 323.152C294.823 321.881 295.68 320.881 297.993 320.881H299.964V320.767C299.964 319.725 299.336 319.11 298.065 319.11C297.208 319.11 296.322 319.396 295.751 319.867L295.051 318.567C295.865 317.939 297.051 317.625 298.279 317.625C300.478 317.624 301.749 318.667 301.749 320.867ZM299.964 322.952V322.067H298.122C296.908 322.067 296.58 322.524 296.58 323.081C296.58 323.724 297.122 324.138 298.037 324.138C298.907 324.137 299.664 323.737 299.964 322.952Z" fill="#E0E0E0"/>
<path d="M316.785 320.966V325.337H314.999V321.195C314.999 319.839 314.371 319.181 313.285 319.181C312.114 319.181 311.3 319.952 311.3 321.466V325.337H309.514V321.195C309.514 319.839 308.886 319.181 307.8 319.181C306.615 319.181 305.815 319.952 305.815 321.466V325.337H304.029V317.711H305.729V318.682C306.3 317.996 307.186 317.625 308.228 317.625C309.342 317.625 310.271 318.039 310.799 318.896C311.413 318.11 312.442 317.625 313.655 317.625C315.5 317.624 316.785 318.667 316.785 320.966Z" fill="#E0E0E0"/>
<path d="M326.277 322.095H320.293C320.507 323.209 321.436 323.923 322.764 323.923C323.621 323.923 324.292 323.652 324.835 323.095L325.792 324.195C325.107 325.009 324.035 325.438 322.721 325.438C320.164 325.438 318.508 323.795 318.508 321.525C318.508 319.255 320.179 317.626 322.449 317.626C324.678 317.626 326.306 319.183 326.306 321.568C326.305 321.709 326.291 321.923 326.277 322.095ZM320.278 320.91H324.606C324.463 319.81 323.621 319.053 322.449 319.053C321.292 319.053 320.45 319.795 320.278 320.91Z" fill="#E0E0E0"/>
<path d="M339.468 320.966V325.337H337.683V321.195C337.683 319.839 337.012 319.181 335.869 319.181C334.598 319.181 333.741 319.952 333.741 321.481V325.337H331.956V314.74H333.741V318.596C334.327 317.968 335.226 317.625 336.283 317.625C338.111 317.624 339.468 318.667 339.468 320.966Z" fill="#E0E0E0"/>
<path d="M348.947 322.095H342.963C343.177 323.209 344.106 323.923 345.434 323.923C346.291 323.923 346.962 323.652 347.505 323.095L348.462 324.195C347.777 325.009 346.705 325.438 345.391 325.438C342.835 325.438 341.178 323.795 341.178 321.525C341.178 319.255 342.849 317.626 345.12 317.626C347.348 317.626 348.976 319.183 348.976 321.568C348.976 321.709 348.961 321.923 348.947 322.095ZM342.949 320.91H347.276C347.133 319.81 346.291 319.053 345.12 319.053C343.963 319.053 343.12 319.795 342.949 320.91Z" fill="#E0E0E0"/>
<path d="M355.099 317.624V319.324C354.942 319.295 354.813 319.281 354.685 319.281C353.328 319.281 352.471 320.081 352.471 321.637V325.336H350.686V317.71H352.385V318.824C352.899 318.024 353.828 317.624 355.099 317.624Z" fill="#E0E0E0"/>
<path d="M363.68 322.095H357.696C357.91 323.209 358.839 323.923 360.167 323.923C361.024 323.923 361.695 323.652 362.238 323.095L363.195 324.195C362.509 325.009 361.438 325.438 360.124 325.438C357.568 325.438 355.911 323.795 355.911 321.525C355.911 319.255 357.582 317.626 359.853 317.626C362.081 317.626 363.709 319.183 363.709 321.568C363.709 321.709 363.695 321.923 363.68 322.095ZM357.682 320.91H362.009C361.866 319.81 361.024 319.053 359.853 319.053C358.696 319.053 357.853 319.795 357.682 320.91Z" fill="#E0E0E0"/>
<path d="M278.972 406.915H193.74C182.047 406.915 172.567 397.436 172.567 385.742C172.567 374.048 182.046 364.569 193.74 364.569H278.972C290.665 364.569 300.145 374.048 300.145 385.742C300.145 397.436 290.666 406.915 278.972 406.915Z" fill="#00878C"/>
<path d="M201.548 307.231H199.912V334.231H201.548V307.231Z" fill="#00878C"/>
<path d="M199.833 385.208C199.833 382.08 202.228 379.819 205.446 379.819C207.153 379.819 208.619 380.432 209.592 381.57L208.335 382.753C207.571 381.93 206.628 381.525 205.536 381.525C203.365 381.525 201.794 383.052 201.794 385.208C201.794 387.363 203.366 388.891 205.536 388.891C206.629 388.891 207.572 388.487 208.335 387.649L209.592 388.846C208.619 389.984 207.152 390.597 205.43 390.597C202.228 390.597 199.833 388.337 199.833 385.208Z" fill="#FAFAFA"/>
<path d="M205.431 390.622C203.87 390.622 202.443 390.079 201.413 389.094C200.378 388.103 199.808 386.723 199.808 385.208C199.808 383.692 200.379 382.312 201.415 381.322C202.447 380.337 203.878 379.794 205.446 379.794C207.161 379.794 208.641 380.419 209.612 381.554L209.628 381.573L209.61 381.59L208.335 382.789L208.317 382.77C207.566 381.961 206.631 381.551 205.536 381.551C204.49 381.551 203.543 381.915 202.869 382.576C202.192 383.24 201.819 384.175 201.819 385.208C201.819 386.241 202.192 387.176 202.869 387.84C203.544 388.501 204.491 388.865 205.536 388.865C206.635 388.865 207.571 388.45 208.317 387.632L208.334 387.612L208.353 387.63L209.627 388.844L209.612 388.863C208.641 389.997 207.156 390.622 205.431 390.622ZM205.446 379.845C203.891 379.845 202.472 380.382 201.45 381.359C200.423 382.341 199.858 383.707 199.858 385.209C199.858 386.71 200.423 388.077 201.448 389.059C202.469 390.036 203.883 390.573 205.431 390.573C207.132 390.573 208.597 389.962 209.558 388.849L208.336 387.686C207.583 388.502 206.641 388.917 205.536 388.917C203.353 388.917 201.769 387.358 201.769 385.209C201.769 383.061 203.353 381.501 205.536 381.501C206.636 381.501 207.579 381.911 208.336 382.719L209.558 381.57C208.597 380.456 207.138 379.845 205.446 379.845Z" fill="#263238"/>
<path d="M210.331 386.451C210.331 384.056 212.127 382.365 214.582 382.365C217.067 382.365 218.848 384.056 218.848 386.451C218.848 388.847 217.067 390.553 214.582 390.553C212.127 390.552 210.331 388.846 210.331 386.451ZM216.962 386.451C216.962 384.925 215.944 383.952 214.582 383.952C213.235 383.952 212.217 384.925 212.217 386.451C212.217 387.978 213.235 388.951 214.582 388.951C215.944 388.951 216.962 387.978 216.962 386.451Z" fill="#FAFAFA"/>
<path d="M214.582 390.578C212.104 390.578 210.306 388.842 210.306 386.451C210.306 384.069 212.104 382.34 214.582 382.34C215.792 382.34 216.887 382.749 217.664 383.492C218.444 384.237 218.873 385.288 218.873 386.451C218.873 387.616 218.444 388.67 217.664 389.418C216.885 390.165 215.791 390.578 214.582 390.578ZM214.582 382.39C212.133 382.39 210.356 384.097 210.356 386.45C210.356 388.812 212.133 390.526 214.582 390.526C215.778 390.526 216.86 390.12 217.629 389.38C218.399 388.642 218.823 387.601 218.823 386.449C218.823 385.3 218.399 384.261 217.63 383.526C216.861 382.793 215.779 382.39 214.582 382.39ZM214.582 388.976C213.175 388.976 212.192 387.937 212.192 386.451C212.192 384.965 213.174 383.927 214.582 383.927C215.998 383.927 216.987 384.965 216.987 386.451C216.987 387.937 215.998 388.976 214.582 388.976ZM214.582 383.977C213.205 383.977 212.242 384.994 212.242 386.451C212.242 387.908 213.204 388.926 214.582 388.926C215.969 388.926 216.937 387.908 216.937 386.451C216.937 384.994 215.968 383.977 214.582 383.977Z" fill="#263238"/>
<path d="M228.522 385.867V390.447H226.651V386.106C226.651 384.684 225.947 383.996 224.75 383.996C223.417 383.996 222.52 384.804 222.52 386.405V390.447H220.649V382.454H222.43V383.486C223.044 382.753 224.016 382.364 225.184 382.364C227.1 382.365 228.522 383.457 228.522 385.867Z" fill="#FAFAFA"/>
<path d="M228.546 390.473H226.625V386.107C226.625 384.743 225.976 384.022 224.749 384.022C223.348 384.022 222.543 384.89 222.543 386.406V390.473H220.622V382.429H222.453V383.419C223.066 382.722 224.033 382.339 225.182 382.339C226.176 382.339 227.008 382.635 227.587 383.194C228.223 383.807 228.545 384.707 228.545 385.867V390.473H228.546ZM226.675 390.422H228.496V385.867C228.496 383.657 227.288 382.39 225.183 382.39C224.02 382.39 223.049 382.784 222.448 383.502L222.404 383.555V382.48H220.673V390.422H222.494V386.405C222.494 384.881 223.337 383.97 224.749 383.97C226.009 383.97 226.675 384.709 226.675 386.106V390.422Z" fill="#263238"/>
<path d="M235.711 390.013C235.262 390.372 234.588 390.552 233.915 390.552C232.163 390.552 231.161 389.624 231.161 387.858V384.011H229.844V382.514H231.161V380.688H233.032V382.514H235.173V384.011H233.032V387.813C233.032 388.591 233.421 389.01 234.14 389.01C234.529 389.01 234.903 388.906 235.187 388.681L235.711 390.013Z" fill="#FAFAFA"/>
<path d="M233.915 390.578C232.122 390.578 231.136 389.612 231.136 387.858V384.037H229.819V382.489H231.136V380.663H233.057V382.489H235.198V384.037H233.057V387.813C233.057 388.58 233.431 388.985 234.14 388.985C234.547 388.985 234.904 388.874 235.172 388.662L235.198 388.641L235.211 388.672L235.741 390.021L235.727 390.033C235.295 390.378 234.634 390.578 233.915 390.578ZM229.868 383.986H231.185V387.858C231.185 389.58 232.154 390.527 233.915 390.527C234.615 390.527 235.257 390.337 235.681 390.005L235.176 388.721C234.903 388.927 234.545 389.035 234.14 389.035C233.41 389.035 233.007 388.6 233.007 387.812V383.985H235.148V382.539H233.007V380.713H231.186V382.539H229.869L229.868 383.986Z" fill="#263238"/>
<path d="M237.001 380.014C237.001 379.386 237.51 378.892 238.198 378.892C238.886 378.892 239.396 379.356 239.396 379.969C239.396 380.628 238.902 381.137 238.198 381.137C237.51 381.137 237.001 380.643 237.001 380.014ZM237.256 382.454H239.127V390.447H237.256V382.454Z" fill="#FAFAFA"/>
<path d="M239.152 390.473H237.231V382.429H239.152V390.473ZM237.28 390.422H239.101V382.48H237.28V390.422ZM238.198 381.162C237.501 381.162 236.976 380.668 236.976 380.014C236.976 379.36 237.501 378.866 238.198 378.866C238.895 378.866 239.421 379.341 239.421 379.969C239.421 380.66 238.907 381.162 238.198 381.162ZM238.198 378.917C237.53 378.917 237.026 379.389 237.026 380.014C237.026 380.64 237.53 381.112 238.198 381.112C238.878 381.112 239.371 380.632 239.371 379.969C239.371 379.37 238.867 378.917 238.198 378.917Z" fill="#263238"/>
<path d="M249.457 385.867V390.447H247.586V386.106C247.586 384.684 246.882 383.996 245.685 383.996C244.352 383.996 243.454 384.804 243.454 386.405V390.447H241.583V382.454H243.364V383.486C243.978 382.753 244.95 382.364 246.118 382.364C248.035 382.365 249.457 383.457 249.457 385.867Z" fill="#FAFAFA"/>
<path d="M249.482 390.473H247.561V386.107C247.561 384.743 246.912 384.022 245.685 384.022C244.284 384.022 243.479 384.89 243.479 386.406V390.473H241.558V382.429H243.389V383.419C244.002 382.722 244.969 382.339 246.119 382.339C247.113 382.339 247.945 382.635 248.524 383.194C249.16 383.807 249.482 384.707 249.482 385.867V390.473ZM247.61 390.422H249.431V385.867C249.431 383.657 248.223 382.39 246.118 382.39C244.955 382.39 243.984 382.784 243.383 383.502L243.339 383.555V382.48H241.607V390.422H243.428V386.405C243.428 384.881 244.271 383.97 245.683 383.97C246.943 383.97 247.609 384.709 247.609 386.106L247.61 390.422Z" fill="#263238"/>
<path d="M259.58 382.454V390.447H257.799V389.429C257.2 390.162 256.257 390.551 255.224 390.551C253.173 390.551 251.781 389.429 251.781 387.019V382.454H253.652V386.765C253.652 388.217 254.34 388.906 255.523 388.906C256.825 388.906 257.709 388.097 257.709 386.496V382.455L259.58 382.454Z" fill="#FAFAFA"/>
<path d="M255.224 390.578C254.159 390.578 253.315 390.285 252.716 389.708C252.079 389.095 251.756 388.19 251.756 387.02V382.429H253.677V386.765C253.677 388.149 254.316 388.88 255.523 388.88C256.896 388.88 257.684 388.011 257.684 386.495V382.429H259.605V390.473H257.774V389.498C257.184 390.185 256.259 390.578 255.224 390.578ZM251.806 382.48V387.02C251.806 388.176 252.124 389.069 252.751 389.672C253.34 390.239 254.173 390.526 255.224 390.526C256.271 390.526 257.202 390.121 257.779 389.414L257.823 389.359V390.422H259.554V382.48H257.733V386.496C257.733 388.02 256.907 388.932 255.523 388.932C254.283 388.932 253.627 388.183 253.627 386.766V382.481L251.806 382.48Z" fill="#263238"/>
<path d="M269.524 387.05H263.252C263.477 388.217 264.449 388.966 265.842 388.966C266.74 388.966 267.444 388.681 268.012 388.097L269.015 389.25C268.296 390.103 267.174 390.552 265.797 390.552C263.117 390.552 261.381 388.831 261.381 386.45C261.381 384.07 263.133 382.364 265.512 382.364C267.847 382.364 269.554 383.996 269.554 386.495C269.553 386.646 269.539 386.87 269.524 387.05ZM263.236 385.807H267.772C267.623 384.655 266.739 383.862 265.512 383.862C264.299 383.862 263.416 384.64 263.236 385.807Z" fill="#FAFAFA"/>
<path d="M265.796 390.578C264.488 390.578 263.371 390.175 262.566 389.413C261.785 388.674 261.355 387.622 261.355 386.451C261.355 384.069 263.103 382.34 265.511 382.34C267.906 382.34 269.577 384.049 269.577 386.496C269.577 386.679 269.556 386.946 269.547 387.053L269.545 387.076H263.28C263.516 388.227 264.494 388.941 265.839 388.941C266.723 388.941 267.427 388.66 267.991 388.08L268.01 388.06L268.028 388.081L269.045 389.251L269.031 389.268C268.311 390.124 267.191 390.578 265.796 390.578ZM265.512 382.39C263.133 382.39 261.406 384.097 261.406 386.45C261.406 387.607 261.831 388.646 262.601 389.376C263.397 390.129 264.502 390.526 265.797 390.526C267.168 390.526 268.269 390.085 268.983 389.25L268.012 388.134C267.44 388.71 266.731 388.991 265.843 388.991C264.46 388.991 263.458 388.249 263.229 387.055L263.223 387.025H269.502C269.512 386.908 269.53 386.665 269.53 386.496C269.528 384.078 267.877 382.39 265.512 382.39ZM267.8 385.832H263.207L263.211 385.803C263.395 384.609 264.298 383.836 265.511 383.836C266.725 383.836 267.643 384.627 267.796 385.804L267.8 385.832ZM263.266 385.782H267.744C267.584 384.647 266.691 383.887 265.512 383.887C264.335 383.887 263.456 384.629 263.266 385.782Z" fill="#263238"/>
<path d="M155.036 220.194C157.663 220.194 159.794 218.064 159.794 215.436C159.794 212.808 157.663 210.678 155.036 210.678C152.408 210.678 150.278 212.808 150.278 215.436C150.278 218.064 152.408 220.194 155.036 220.194Z" fill="white"/>
<path d="M172.568 220.194C175.195 220.194 177.326 218.064 177.326 215.436C177.326 212.808 175.195 210.678 172.568 210.678C169.94 210.678 167.81 212.808 167.81 215.436C167.81 218.064 169.94 220.194 172.568 220.194Z" fill="white"/>
<path d="M190.1 220.194C192.727 220.194 194.858 218.064 194.858 215.436C194.858 212.808 192.727 210.678 190.1 210.678C187.472 210.678 185.342 212.808 185.342 215.436C185.342 218.064 187.472 220.194 190.1 220.194Z" fill="white"/>
<path d="M141.327 432.866C147.532 429.665 154.838 429.248 161.726 430.387C165.427 430.999 169.285 432.106 171.803 434.885C174.321 437.665 174.798 442.556 171.907 444.945C170.186 446.367 167.786 446.583 165.553 446.557C160.16 446.494 154.178 445.545 149.87 448.789C147.412 450.64 145.776 453.717 142.837 454.628C139.962 455.519 136.718 453.822 135.194 451.227C133.67 448.632 133.619 445.389 134.329 442.465C134.329 442.465 135.077 436.09 141.327 432.866Z" fill="#00878C"/>
<path d="M127.112 405.425C130.906 410.843 138.28 409.049 141.699 405.742C145.118 402.434 146.563 397.641 147.878 393.069C150.884 382.624 153.914 371.667 151.679 361.031C151.011 357.851 149.822 354.68 147.587 352.321C145.352 349.962 141.916 348.559 138.775 349.389C135.057 350.371 132.746 354.013 131.076 357.477C126.167 367.659 123.567 378.947 123.529 390.251C123.512 395.53 124.134 401.066 127.112 405.425Z" fill="#00878C"/>
<path d="M116.693 413.2C120.812 408.311 121.594 401.18 119.761 395.056C117.928 388.931 113.787 383.721 109.015 379.467C103.419 374.48 96.8423 370.599 89.7713 368.113C86.9883 367.135 84.0533 366.363 81.1173 366.643C78.1803 366.923 75.2233 368.424 73.8543 371.037C71.8293 374.899 73.7713 379.585 75.8713 383.407C79.5713 390.141 83.8013 396.583 88.5103 402.654C92.2983 407.538 96.6383 412.356 102.412 414.563C108.186 416.77 114.183 416.511 117.244 412.507" fill="#00878C"/>
<path d="M126.855 487.164C126.926 487.168 127.041 486.29 127.198 484.702C127.372 482.91 127.592 480.66 127.852 477.982C128.165 475.155 128.578 471.79 129.364 468.126C130.147 464.471 131.372 460.51 132.946 456.493C134.576 452.5 136.564 448.87 138.886 445.967C141.192 443.051 143.875 440.941 146.396 439.724C148.909 438.483 151.163 437.979 152.72 437.755C154.291 437.594 155.171 437.47 155.172 437.4C155.173 437.33 154.291 437.319 152.677 437.362C151.078 437.469 148.731 437.874 146.082 439.078C143.425 440.256 140.579 442.4 138.16 445.376C135.721 448.34 133.661 452.049 132.003 456.114C130.402 460.202 129.194 464.203 128.446 467.937C127.7 471.665 127.359 475.067 127.136 477.918C126.923 480.772 126.842 483.082 126.803 484.679C126.768 486.276 126.786 487.16 126.855 487.164Z" fill="#2A7173"/>
<path d="M127.318 481.994C127.353 481.992 127.375 481.599 127.384 480.851C127.381 479.993 127.379 478.911 127.375 477.584C127.367 474.749 127.369 470.646 127.52 465.579C127.771 455.446 128.644 444.54 130.329 429.164C131.925 414.706 134.067 397.88 136.327 386.941C136.812 384.453 137.3 382.214 137.76 380.254C138.198 378.289 138.572 376.595 138.933 375.224C139.243 373.934 139.496 372.883 139.696 372.048C139.86 371.319 139.93 370.93 139.896 370.921C139.862 370.911 139.726 371.28 139.499 371.992C139.25 372.814 138.936 373.85 138.55 375.123C138.129 376.481 137.698 378.164 137.206 380.121C136.693 382.073 136.154 384.307 135.623 386.791C133.386 396.703 131.019 410.557 129.317 425.97C127.628 441.378 126.868 455.407 126.8 465.566C126.74 470.645 126.848 474.757 126.977 477.594C127.058 478.921 127.124 480.001 127.176 480.859C127.236 481.605 127.283 481.996 127.318 481.994Z" fill="#2A7173"/>
<path d="M127.386 454.936C127.457 454.933 127.445 453.721 127.362 451.523C127.236 449.33 126.935 446.16 126.317 442.277C125.662 438.403 124.747 433.803 123.31 428.805C122.687 426.52 121.223 421.045 117.677 412.864C113.004 401.779 106.656 392.717 101.133 387.103C99.8383 385.613 98.3953 384.538 97.2413 383.485C96.6443 382.98 96.1163 382.477 95.5783 382.078C95.0383 381.705 94.5343 381.359 94.0683 381.037C92.2503 379.794 91.2323 379.138 91.1953 379.198C91.0323 379.419 95.2663 381.912 100.613 387.6C105.938 393.276 112.109 402.276 116.744 413.268C119.329 419.23 121.131 424.548 122.409 429.062C123.886 434.012 124.868 438.565 125.609 442.4C126.314 446.244 126.722 449.382 126.968 451.556C127.171 453.732 127.316 454.939 127.386 454.936Z" fill="#2A7173"/>
<path d="M101.233 502.667L109.301 543.825H147.392L154.375 502.667H101.233Z" fill="#E59C28"/>
<path d="M160.069 488.025H96.6243V502.666H160.069V488.025Z" fill="#E59C28"/>
<path d="M155.039 502.421C155.039 502.585 143.082 502.718 128.336 502.718C113.584 502.718 101.63 502.585 101.63 502.421C101.63 502.257 113.584 502.124 128.336 502.124C143.082 502.124 155.039 502.257 155.039 502.421Z" fill="#2A7173"/>
<path d="M438.823 363.995L446.567 372.306C446.567 372.306 478.956 426.623 483.583 430.111C488.21 433.599 495.938 437.618 500.575 436.999C505.211 436.381 517.513 428.035 517.513 428.035L506.771 395.031L494.548 391.684L461.552 353.446L438.823 363.995Z" fill="#FFBE9D"/>
<path d="M445.021 370.542C442.27 367.229 435.177 360.42 435.177 360.42L432.19 357.229C432.051 357.486 431.948 357.769 431.857 358.047C431.683 358.576 431.506 359.135 431.097 359.512C430.323 360.228 429.062 359.995 428.142 359.479C426.216 358.399 424.949 356.235 424.948 354.027C424.947 351.905 426.123 349.834 427.922 348.714C428.076 348.176 428.33 347.632 428.744 347.101C431.282 343.845 437.224 344.282 437.224 344.282L436.335 343.018C436.335 343.018 432.284 340.493 425.545 344.766C424.539 345.404 423.326 345.704 422.151 345.506C421.432 345.385 420.734 345.078 420.339 344.408C419.356 342.739 420.283 341.607 424.454 338.882C428.625 336.157 433.545 334.911 436.671 336.07C439.796 337.229 440.943 337.885 440.943 337.885C440.943 337.885 433.584 326.007 433.149 325.237C431.889 323.008 431.829 320.575 433.233 319.587C434.134 318.953 435.735 318.82 437.281 321.37C438.62 323.577 455.208 344.432 455.208 344.432L462.006 354.091L445.021 370.542Z" fill="#FFBE9D"/>
<path d="M459.545 354.463C458.503 355.567 456.662 355.431 455.313 354.735C453.964 354.039 452.891 352.906 451.595 352.114C447.721 349.747 442.426 350.714 438.67 348.164C438.146 347.809 437.612 347.206 437.848 346.619C438.067 346.075 438.777 345.968 439.363 345.944C444.371 345.738 449.38 345.532 454.388 345.325" fill="#FFBE9D"/>
<path d="M454.389 345.325C454.387 345.266 453.806 345.233 452.757 345.225C451.709 345.217 450.193 345.233 448.321 345.271C446.373 345.324 444.161 345.384 441.746 345.45C441.125 345.471 440.492 345.492 439.846 345.514C439.245 345.58 438.432 345.4 437.673 346.115C437.312 346.49 437.297 347.136 437.519 347.529C437.723 347.936 438.019 348.213 438.335 348.45C438.958 348.866 439.598 349.222 440.294 349.488C443.08 350.563 445.861 350.611 448.211 351.203C449.39 351.48 450.471 351.865 451.381 352.403C452.292 352.939 453.068 353.613 453.848 354.16C455.369 355.338 457.1 355.681 458.162 355.376C459.257 355.089 459.581 354.464 459.544 354.464C459.492 354.394 459.095 354.894 458.098 355.048C457.103 355.214 455.626 354.854 454.208 353.672C453.477 353.116 452.722 352.408 451.749 351.795C450.777 351.182 449.623 350.746 448.399 350.436C445.961 349.787 443.184 349.696 440.611 348.692C439.971 348.451 439.373 348.113 438.837 347.762C438.326 347.403 438.053 346.889 438.305 346.668C438.543 346.384 439.234 346.354 439.877 346.334C440.522 346.303 441.155 346.272 441.776 346.241C444.188 346.108 446.398 345.986 448.343 345.878C450.212 345.762 451.724 345.654 452.768 345.559C453.815 345.465 454.391 345.384 454.389 345.325Z" fill="#EB996E"/>
<path d="M437.422 344.248C437.34 344.326 436.859 343.173 435.241 342.427C434.448 342.065 433.384 341.933 432.25 342.185C431.11 342.422 429.936 342.991 428.743 343.682C427.546 344.369 426.379 345.056 425.195 345.438C424.018 345.815 422.871 345.933 421.927 345.712C420.967 345.503 420.377 344.839 420.181 344.357C419.974 343.865 419.987 343.568 420.008 343.565C420.06 343.551 420.124 343.833 420.372 344.256C420.617 344.673 421.151 345.187 422.009 345.329C422.854 345.481 423.931 345.337 425.031 344.955C426.137 344.57 427.261 343.895 428.469 343.201C429.674 342.503 430.919 341.911 432.15 341.685C433.377 341.439 434.568 341.63 435.408 342.074C436.259 342.506 436.785 343.092 437.077 343.519C437.37 343.953 437.45 344.234 437.422 344.248Z" fill="#EB996E"/>
<path d="M432.676 324.37C432.746 324.334 433.287 325.246 434.155 326.722C435.128 328.36 436.287 330.313 437.569 332.47C438.883 334.609 440.072 336.544 441.069 338.168C441.971 339.622 442.527 340.525 442.463 340.571C442.403 340.614 441.732 339.788 440.743 338.384C439.752 336.982 438.451 334.998 437.095 332.757C435.742 330.515 434.592 328.44 433.812 326.911C433.029 325.382 432.61 324.404 432.676 324.37Z" fill="#EB996E"/>
<path d="M436.365 348.576C436.367 348.618 436.055 348.648 435.509 348.729C434.99 348.816 434.119 348.977 433.622 349.757C433.379 350.133 433.37 350.631 433.607 351.124C433.826 351.619 434.236 352.075 434.658 352.598C435.07 353.108 435.542 353.787 435.512 354.638C435.47 355.465 434.98 356.233 434.27 356.688C433.543 357.156 432.656 357.207 431.911 357.016C431.158 356.818 430.502 356.44 430.019 355.893C429.139 354.829 428.608 353.746 428.208 352.811C427.825 351.87 427.637 351.054 427.619 350.478C427.603 349.899 427.727 349.593 427.751 349.602C427.801 349.611 427.754 349.918 427.833 350.457C427.914 350.997 428.15 351.762 428.566 352.653C428.991 353.531 429.567 354.593 430.398 355.552C431.194 356.418 432.795 356.963 433.971 356.222C434.545 355.858 434.937 355.23 434.971 354.613C435.005 353.991 434.652 353.418 434.257 352.912C433.865 352.4 433.429 351.899 433.186 351.304C432.918 350.731 432.949 350.001 433.292 349.545C433.97 348.615 434.958 348.546 435.488 348.514C436.057 348.498 436.363 348.542 436.365 348.576Z" fill="#EB996E"/>
<path d="M431.884 356.535C431.904 356.517 432.124 356.731 432.228 357.249C432.326 357.748 432.257 358.597 431.588 359.317C430.933 360.02 429.712 360.417 428.484 360.1C427.257 359.793 426.142 358.871 425.407 357.669C424.67 356.459 424.384 355.08 424.488 353.863C424.583 352.636 425.057 351.604 425.578 350.86C426.104 350.109 426.682 349.633 427.102 349.355C427.527 349.079 427.793 348.987 427.808 349.016C427.875 349.101 426.832 349.606 425.904 351.076C425.455 351.803 425.056 352.775 424.996 353.898C424.927 355.015 425.205 356.276 425.878 357.381C426.548 358.481 427.556 359.319 428.612 359.607C429.663 359.906 430.725 359.602 431.311 359.039C431.906 358.471 432.041 357.732 432.012 357.275C431.986 356.802 431.841 356.557 431.884 356.535Z" fill="#EB996E"/>
<path d="M444.955 359.511C444.926 359.47 445.302 359.122 446.104 358.833C446.892 358.547 448.153 358.367 449.503 358.825L449.173 359.186C448.92 358.654 448.677 358.062 448.469 357.435C447.291 353.942 447.765 350.914 447.898 350.958C448.067 350.955 447.856 353.9 448.994 357.26C449.196 357.867 449.423 358.442 449.654 358.963L449.909 359.539L449.324 359.323C448.123 358.881 446.963 358.969 446.197 359.152C445.421 359.336 444.991 359.575 444.955 359.511Z" fill="#EB996E"/>
<path d="M432.372 339.339C432.518 339.326 432.578 340.462 431.803 341.549C431.037 342.643 429.946 342.965 429.91 342.823C429.841 342.678 430.69 342.185 431.351 341.23C432.031 340.287 432.212 339.322 432.372 339.339Z" fill="#EB996E"/>
<path d="M419.528 529.738C419.528 529.738 406.492 532.555 394.854 530.81C383.942 529.174 359.511 530.867 359.52 545.248C359.53 561.288 392.108 557.325 404.82 554.782C417.532 552.24 430.189 549.936 430.189 549.936L419.528 529.738Z" fill="#222769"/>
<path d="M390.27 550.286C390.102 550.324 389.397 547.824 388.696 544.704C387.994 541.583 387.562 539.022 387.731 538.985C387.899 538.947 388.604 541.446 389.306 544.567C390.006 547.687 390.438 550.248 390.27 550.286Z" fill="#23286B"/>
<path d="M394.716 550.498C394.545 550.522 394.052 547.959 393.616 544.775C393.179 541.59 392.964 538.99 393.134 538.966C393.305 538.942 393.798 541.505 394.234 544.69C394.672 547.873 394.887 550.474 394.716 550.498Z" fill="#23286B"/>
<path d="M399.01 548.821C398.839 548.842 398.428 546.602 398.092 543.82C397.756 541.037 397.623 538.764 397.794 538.744C397.965 538.723 398.376 540.962 398.712 543.745C399.048 546.528 399.181 548.8 399.01 548.821Z" fill="#23286B"/>
<path d="M405.754 547.138C405.603 547.204 404.677 545.333 404.077 542.844C403.468 540.356 403.433 538.269 403.598 538.259C403.777 538.242 404.087 540.262 404.684 542.697C405.27 545.134 405.921 547.071 405.754 547.138Z" fill="#23286B"/>
<path d="M407.199 541.275C407.196 541.239 407.799 541.137 408.903 541.162C410.001 541.193 411.614 541.371 413.48 542.057C413.95 542.234 414.439 542.46 414.89 542.816C415.334 543.16 415.755 543.719 415.772 544.405C415.786 545.824 414.229 546.847 412.82 546.55C411.396 546.279 410.313 545.236 409.417 544.127C408.51 542.992 407.855 541.606 407.492 540.117C406.777 537.125 407.308 534.03 408.927 531.811C409.163 531.545 409.488 531.29 409.895 531.229C410.29 531.161 410.717 531.315 410.979 531.567C411.513 532.075 411.7 532.715 411.795 533.317C411.947 534.494 411.863 535.608 411.623 536.578C411.154 538.537 410.176 539.894 409.424 540.692C409.04 541.092 408.708 541.367 408.472 541.536C408.234 541.703 408.104 541.781 408.091 541.764C408.055 541.719 408.545 541.355 409.242 540.531C409.92 539.706 410.801 538.361 411.192 536.482C411.395 535.551 411.446 534.494 411.283 533.393C411.2 532.876 410.992 532.313 410.617 531.98C410.248 531.64 409.72 531.736 409.359 532.191C407.951 534.172 407.405 537.168 408.099 539.97C408.442 541.376 409.055 542.682 409.899 543.75C410.731 544.805 411.757 545.761 412.922 545.983C414.037 546.257 415.277 545.388 415.254 544.416C415.252 543.932 414.964 543.498 414.584 543.187C414.205 542.871 413.758 542.645 413.321 542.467C411.53 541.75 409.964 541.507 408.888 541.403C407.807 541.306 407.201 541.326 407.199 541.275Z" fill="#23286B"/>
<path d="M428.898 547.815C428.9 547.825 428.789 547.861 428.57 547.919C428.316 547.982 427.994 548.062 427.592 548.162C426.685 548.369 425.421 548.657 423.813 549.023C420.524 549.746 415.755 550.761 409.829 551.906C403.902 553.041 396.823 554.342 388.886 555.423C384.93 555.954 380.692 556.436 376.305 556.05C374.115 555.89 371.886 555.513 369.714 554.79C368.639 554.403 367.559 553.983 366.552 553.385C365.543 552.787 364.572 552.135 363.774 551.147L363.822 551.201C363.419 550.811 362.998 550.366 362.688 549.84C361.356 547.71 361.312 545.066 362.024 542.821C362.755 540.527 364.389 538.7 366.205 537.358C368.045 536.018 370.091 535.084 372.145 534.414C373.185 534.119 374.197 533.762 375.227 533.529C376.263 533.323 377.274 533.048 378.295 532.907C386.465 531.617 393.897 532.273 400.071 532.275C403.167 532.332 405.962 532.248 408.412 532.098C410.86 531.913 412.958 531.636 414.654 531.309C415.494 531.132 416.245 530.975 416.903 530.837C417.531 530.658 418.069 530.504 418.521 530.376C418.933 530.263 419.263 530.172 419.521 530.101C419.749 530.042 419.866 530.017 419.869 530.027C419.873 530.037 419.762 530.083 419.542 530.161C419.287 530.248 418.963 530.358 418.559 530.496C418.11 530.641 417.575 530.815 416.951 531.017C416.293 531.172 415.543 531.35 414.704 531.548C413.006 531.913 410.899 532.228 408.441 532.447C405.981 532.631 403.17 532.746 400.068 532.717C393.88 532.769 386.454 532.167 378.391 533.475C377.382 533.618 376.389 533.894 375.368 534.1C374.353 534.333 373.36 534.688 372.337 534.98C370.323 535.643 368.333 536.56 366.568 537.851C364.825 539.144 363.291 540.882 362.617 543.012C361.95 545.114 362.008 547.587 363.217 549.508C363.496 549.985 363.877 550.383 364.238 550.736L364.257 550.756L364.286 550.79C364.947 551.611 365.911 552.292 366.863 552.845C367.825 553.418 368.871 553.825 369.912 554.202C372.02 554.907 374.202 555.281 376.356 555.443C380.674 555.831 384.854 555.372 388.813 554.856C396.734 553.81 403.815 552.555 409.748 551.476C415.68 550.387 420.46 549.438 423.762 548.788C425.38 548.47 426.652 548.22 427.564 548.04C427.971 547.965 428.298 547.904 428.555 547.856C428.78 547.819 428.896 547.804 428.898 547.815Z" fill="#23286B"/>
<path d="M381.229 555.538C381.137 555.539 381.062 554.262 380.913 552.206C380.766 550.15 380.52 547.315 380.105 544.201C379.686 541.087 379.177 538.287 378.778 536.264C378.38 534.242 378.117 532.99 378.206 532.967C378.284 532.946 378.698 534.16 379.209 536.168C379.72 538.175 380.303 540.982 380.724 544.119C381.143 547.254 381.319 550.116 381.354 552.187C381.39 554.257 381.31 555.537 381.229 555.538Z" fill="#23286B"/>
<g opacity="0.4">
<path d="M415.516 530.432L423.777 551.123L430.188 549.936L417.91 529.738L415.516 530.432Z" fill="#23286B"/>
</g>
<path d="M499.323 482.156L518.727 438.866L507.492 401.721C504.085 390.456 504.881 378.337 509.734 367.615L528.673 330.905L545.585 324.877L585.268 319.587C585.97 319.821 587.963 319.939 599.716 323.846C609.593 327.13 617.957 333.856 623.286 342.797L591.228 436.305C591.228 436.305 612.971 483.882 610.245 505.693L499.323 482.156Z" fill="#DC2C2F"/>
<path d="M531.852 329.94C531.852 329.94 509.654 334.854 501.561 365.144L491.604 397.398L509.82 398.52L531.852 329.94Z" fill="#DC2C2F"/>
<path d="M508.169 399.569C508.154 399.575 508.085 399.42 507.968 399.119C507.857 398.816 507.669 398.376 507.488 397.789C507.138 396.613 506.713 394.873 506.548 392.675C506.192 388.296 507.062 382.082 509.962 376.001C510.684 374.488 511.495 373.047 512.309 371.707C513.109 370.353 513.874 369.043 514.561 367.775C515.953 365.247 516.926 362.84 517.611 360.768C518.295 358.695 518.789 356.994 519.15 355.824C519.32 355.28 519.46 354.836 519.572 354.479C519.673 354.173 519.733 354.014 519.749 354.018C519.764 354.022 519.733 354.189 519.661 354.504C519.571 354.867 519.461 355.319 519.324 355.873C519.016 357.058 518.571 358.773 517.923 360.869C517.275 362.963 516.318 365.42 514.936 367.976C514.255 369.258 513.495 370.576 512.699 371.936C511.883 373.291 511.097 374.697 510.379 376.198C507.513 382.209 506.607 388.324 506.874 392.654C506.995 394.828 507.365 396.558 507.66 397.74C507.995 398.91 508.205 399.555 508.169 399.569Z" fill="#263238"/>
<path d="M453.074 499.914C452.971 500.052 442.558 492.461 429.82 482.96C417.077 473.456 406.834 465.642 406.937 465.503C407.04 465.365 417.45 472.955 430.193 482.459C442.932 491.96 453.177 499.776 453.074 499.914Z" fill="#23286B"/>
<path d="M608.45 501.345L576.949 475.451C573.476 456.16 555.702 441.743 535.095 443.62C527.33 444.327 519.955 447.35 513.927 452.295L495.666 466.607C467.281 458.866 424.13 446.767 401.955 440.532C392.887 437.982 383.164 439.454 375.257 444.572L374.841 444.841C363.234 452.354 357.585 466.34 360.719 479.807C362.709 488.358 368.036 495.749 375.523 500.336C386.724 507.198 404.072 517.783 418.988 526.703L417.009 528.254L430.188 549.936L457.326 541.569C475.671 538.952 514.401 533.914 514.401 533.914L503.326 527.387L505.861 526.605C526.953 544.575 552.745 552.848 584.676 538.908C600.436 531.522 610.274 513.769 608.45 501.345Z" fill="#428DFC"/>
<path d="M554.475 498.455C554.482 498.463 554.395 498.544 554.219 498.694C554.013 498.863 553.753 499.078 553.427 499.346C552.686 499.937 551.653 500.761 550.341 501.809C549.664 502.343 548.916 502.934 548.1 503.578C547.282 504.227 546.318 504.828 545.323 505.531C544.316 506.221 543.242 506.958 542.103 507.738C541.53 508.125 540.951 508.538 540.339 508.934C539.713 509.31 539.072 509.697 538.415 510.092C535.781 511.664 532.939 513.465 529.717 515.092C528.119 515.928 526.489 516.839 524.767 517.691C523.03 518.514 521.243 519.361 519.411 520.23C512.033 523.593 503.768 526.976 494.909 529.989C477.207 536.089 460.84 540.481 449.118 544.034C446.179 544.898 443.53 545.708 441.21 546.442C438.885 547.16 436.883 547.779 435.262 548.33C433.666 548.849 432.411 549.256 431.51 549.549C431.107 549.673 430.783 549.773 430.529 549.851C430.307 549.916 430.191 549.944 430.187 549.934C430.183 549.924 430.292 549.876 430.507 549.791C430.756 549.697 431.073 549.579 431.468 549.43C432.36 549.111 433.603 548.665 435.184 548.099C436.795 547.512 438.787 546.858 441.104 546.108C443.415 545.342 446.058 544.502 448.989 543.611C460.686 539.947 477.032 535.488 494.703 529.398C503.548 526.39 511.797 523.032 519.169 519.706C521 518.848 522.786 518.011 524.522 517.198C526.244 516.357 527.873 515.458 529.472 514.634C532.696 513.031 535.542 511.258 538.183 509.714C538.842 509.326 539.485 508.947 540.113 508.577C540.728 508.189 541.309 507.783 541.885 507.403C543.03 506.639 544.11 505.917 545.123 505.241C546.125 504.554 547.097 503.968 547.923 503.335C548.749 502.708 549.507 502.133 550.192 501.613C551.534 500.606 552.589 499.814 553.346 499.245C553.688 498.996 553.961 498.798 554.177 498.641C554.368 498.511 554.468 498.447 554.475 498.455Z" fill="#23286B"/>
<path d="M556.827 508.593C556.843 508.633 556.495 508.813 555.849 509.105C555.205 509.401 554.256 509.787 553.069 510.228C550.696 511.113 547.347 512.161 543.565 512.977C539.78 513.788 536.295 514.207 533.769 514.375C532.506 514.46 531.481 514.498 530.773 514.493C530.065 514.492 529.673 514.471 529.671 514.428C529.667 514.332 531.225 514.216 533.729 513.935C536.232 513.656 539.678 513.17 543.434 512.366C547.187 511.557 550.528 510.584 552.925 509.81C555.322 509.039 556.791 508.504 556.827 508.593Z" fill="#23286B"/>
<path d="M510.048 455.939C510.154 456.075 489.411 472.375 463.722 492.341C438.025 512.314 417.114 528.389 417.009 528.253C416.903 528.117 437.642 511.821 463.339 491.848C489.027 471.882 509.942 455.803 510.048 455.939Z" fill="#23286B"/>
<path d="M584.641 525.89C584.617 525.89 584.595 525.657 584.576 525.215C584.562 524.693 584.546 524.055 584.526 523.282C584.509 521.604 584.436 519.177 584.289 516.182C584.003 510.194 583.245 501.932 581.569 492.94C579.877 483.947 577.595 475.97 575.695 470.284C574.748 467.44 573.938 465.15 573.347 463.58C573.086 462.852 572.871 462.251 572.694 461.76C572.552 461.341 572.488 461.116 572.51 461.107C572.532 461.098 572.639 461.305 572.824 461.707C573.033 462.186 573.289 462.772 573.598 463.481C574.268 465.023 575.15 467.292 576.159 470.124C578.184 475.785 580.552 483.779 582.251 492.811C583.934 501.843 584.619 510.151 584.779 516.162C584.863 519.168 584.861 521.602 584.795 523.283C584.763 524.056 584.737 524.695 584.715 525.217C584.69 525.659 584.665 525.89 584.641 525.89Z" fill="#23286B"/>
<path d="M504.64 525.561C504.648 525.552 504.74 525.62 504.91 525.76C505.108 525.929 505.352 526.137 505.652 526.393C506.309 526.942 507.22 527.819 508.479 528.844C511.007 530.878 514.772 533.722 519.867 536.503C524.953 539.279 531.394 541.932 538.866 543.647C539.792 543.895 540.746 544.062 541.713 544.229C542.679 544.396 543.653 544.589 544.643 544.741C546.637 544.948 548.661 545.284 550.747 545.339C554.904 545.645 559.236 545.468 563.619 544.954C564.713 544.802 565.799 544.65 566.88 544.5C567.949 544.282 569.011 544.065 570.065 543.85C572.174 543.425 574.216 542.836 576.2 542.205C580.157 540.906 583.853 539.283 587.168 537.373C593.835 533.59 598.843 528.61 602.035 523.796C605.281 518.987 606.795 514.459 607.523 511.316C607.877 509.734 608.065 508.486 608.166 507.638C608.213 507.247 608.253 506.93 608.284 506.671C608.313 506.453 608.336 506.342 608.348 506.343C608.36 506.344 608.361 506.457 608.354 506.676C608.341 506.937 608.326 507.257 608.306 507.651C608.249 508.508 608.104 509.769 607.788 511.373C607.136 514.558 605.677 519.163 602.444 524.067C599.267 528.975 594.219 534.068 587.488 537.926C584.142 539.874 580.407 541.529 576.411 542.85C574.407 543.492 572.347 544.091 570.216 544.522C569.151 544.74 568.079 544.96 567 545.181C565.909 545.333 564.81 545.487 563.705 545.641C559.278 546.16 554.904 546.333 550.708 546.016C548.603 545.955 546.56 545.611 544.549 545.395C543.55 545.239 542.569 545.041 541.595 544.868C540.62 544.696 539.658 544.522 538.725 544.268C531.196 542.504 524.723 539.78 519.632 536.931C514.531 534.076 510.791 531.155 508.306 529.048C507.069 527.987 506.185 527.075 505.557 526.492C505.276 526.216 505.047 525.991 504.861 525.808C504.706 525.654 504.631 525.569 504.64 525.561Z" fill="#23286B"/>
<path d="M519.534 531.977C514.067 529.061 507.93 530.785 502.698 532.548C499.216 533.722 495.598 535.58 492.062 534.584C489.505 533.864 487.603 531.792 485.65 529.991C477.773 522.726 466.91 518.763 456.188 519.435C453.142 519.626 450.166 520.851 448.097 523.093C442.727 528.909 446.778 536.478 451.576 541.369C460.048 550.003 471.583 555.568 483.614 556.824C493.613 557.868 507.363 556.486 517.505 552.144C523.757 549.467 526.965 542.092 523.684 536.134C522.728 534.398 521.331 532.936 519.534 531.977Z" fill="#222769"/>
<g opacity="0.4">
<path d="M519.522 536.632C514.055 533.716 507.917 535.44 502.686 537.203C499.204 538.377 495.585 540.235 492.049 539.239C489.493 538.519 487.591 536.447 485.638 534.646C477.76 527.381 466.898 523.418 456.176 524.09C453.13 524.281 450.155 525.506 448.085 527.748C446.896 529.036 446.19 530.413 445.831 531.825C446.626 535.321 448.979 538.734 451.564 541.369C460.036 550.003 471.572 555.568 483.603 556.825C493.602 557.869 507.352 556.487 517.494 552.145C521.253 550.536 523.897 547.225 524.707 543.549C524.495 542.612 524.165 541.684 523.673 540.79C522.716 539.053 521.319 537.59 519.522 536.632Z" fill="#23286B"/>
</g>
<path d="M524.706 543.548C524.605 543.581 524.633 542.212 523.366 540.309C522.731 539.38 521.784 538.332 520.44 537.448C519.117 536.553 517.403 535.779 515.414 535.524C511.355 535.047 506.653 536.756 501.427 538.17C498.844 538.854 496.023 539.899 492.935 539.512C491.426 539.316 489.914 538.816 488.567 538C487.223 537.195 486.002 536.201 484.812 535.173C480.309 530.777 474.968 528.025 469.861 526.289C467.306 525.432 464.797 524.867 462.422 524.562C460.045 524.249 457.808 524.21 455.805 524.523C453.805 524.834 452.068 525.492 450.687 526.309C449.312 527.142 448.291 528.107 447.552 528.967C446.101 530.724 445.611 531.926 445.533 531.881C445.533 531.881 445.919 530.637 447.331 528.785C448.052 527.878 449.072 526.854 450.472 525.959C451.877 525.08 453.664 524.364 455.721 524.01C457.778 523.653 460.082 523.665 462.497 523.957C464.916 524.241 467.473 524.793 470.075 525.646C472.679 526.494 475.324 527.651 477.923 529.11C479.208 529.858 480.518 530.635 481.742 531.597C482.959 532.551 484.111 533.597 485.293 534.617C486.472 535.637 487.664 536.605 488.94 537.372C490.208 538.144 491.606 538.606 493.027 538.799C495.888 539.177 498.631 538.199 501.25 537.517C506.451 536.156 511.235 534.452 515.479 535.009C519.691 535.68 522.405 538.21 523.606 540.154C524.222 541.148 524.496 542.026 524.617 542.623C524.718 543.226 524.725 543.547 524.706 543.548Z" fill="#23286B"/>
<path d="M524.706 543.548C524.605 543.581 524.633 542.212 523.366 540.309C522.731 539.38 521.784 538.332 520.44 537.448C519.117 536.553 517.403 535.779 515.414 535.524C511.355 535.047 506.653 536.756 501.427 538.17C498.844 538.854 496.023 539.899 492.935 539.512C491.426 539.316 489.914 538.816 488.567 538C487.223 537.195 486.002 536.201 484.812 535.173C480.309 530.777 474.968 528.025 469.861 526.289C467.306 525.432 464.797 524.867 462.422 524.562C460.045 524.249 457.808 524.21 455.805 524.523C453.805 524.834 452.068 525.492 450.687 526.309C449.312 527.142 448.291 528.107 447.552 528.967C446.101 530.724 445.611 531.926 445.533 531.881C445.533 531.881 445.919 530.637 447.331 528.785C448.052 527.878 449.072 526.854 450.472 525.959C451.877 525.08 453.664 524.364 455.721 524.01C457.778 523.653 460.082 523.665 462.497 523.957C464.916 524.241 467.473 524.793 470.075 525.646C472.679 526.494 475.324 527.651 477.923 529.11C479.208 529.858 480.518 530.635 481.742 531.597C482.959 532.551 484.111 533.597 485.293 534.617C486.472 535.637 487.664 536.605 488.94 537.372C490.208 538.144 491.606 538.606 493.027 538.799C495.888 539.177 498.631 538.199 501.25 537.517C506.451 536.156 511.235 534.452 515.479 535.009C519.691 535.68 522.405 538.21 523.606 540.154C524.222 541.148 524.496 542.026 524.617 542.623C524.718 543.226 524.725 543.547 524.706 543.548Z" fill="#23286B"/>
<path d="M456.901 542.232C456.851 542.15 457.905 541.386 459.7 540.292C461.494 539.198 464.039 537.792 466.942 536.425C469.847 535.061 472.555 533.997 474.543 533.314C476.53 532.629 477.791 532.305 477.822 532.396C477.857 532.497 476.658 532.995 474.728 533.8C472.797 534.604 470.14 535.736 467.255 537.091C464.371 538.448 461.806 539.771 459.955 540.745C458.104 541.717 456.956 542.323 456.901 542.232Z" fill="#23286B"/>
<path d="M458.779 547.7C458.691 547.517 463.472 545.023 469.457 542.13C475.444 539.236 480.367 537.038 480.455 537.221C480.543 537.404 475.763 539.897 469.776 542.792C463.791 545.685 458.867 547.883 458.779 547.7Z" fill="#23286B"/>
<path d="M481.427 550.071C481.319 550.243 475.494 546.767 468.417 542.308C461.338 537.848 455.689 534.094 455.797 533.923C455.905 533.751 461.73 537.227 468.809 541.687C475.886 546.145 481.535 549.899 481.427 550.071Z" fill="#23286B"/>
<path d="M484.707 544.398C484.642 544.48 483.568 543.727 481.854 542.492C480.14 541.256 477.776 539.549 475.13 537.714C472.482 535.88 470.054 534.264 468.296 533.093C466.538 531.921 465.457 531.181 465.51 531.091C465.56 531.007 466.736 531.59 468.57 532.652C470.404 533.714 472.889 535.267 475.548 537.11C478.206 538.954 480.533 540.735 482.171 542.08C483.81 543.425 484.768 544.322 484.707 544.398Z" fill="#23286B"/>
<path d="M526.491 319.586C526.371 319.555 527.003 318.616 526.707 316.836C526.554 315.964 526.168 314.921 525.455 313.879C524.742 312.835 523.684 311.817 522.481 310.701C521.277 309.597 519.935 308.27 518.918 306.547C517.896 304.839 517.142 302.802 516.846 300.575C516.541 298.356 516.751 295.926 517.527 293.621C518.276 291.304 519.465 289.112 520.635 286.903C521.814 284.7 522.888 282.528 523.499 280.311C524.128 278.099 524.184 275.872 523.634 273.844C522.524 269.765 520.09 266.548 518.858 263.445C517.504 260.371 517.379 257.492 517.85 255.674C518.069 254.756 518.39 254.09 518.645 253.671C518.9 253.249 519.081 253.063 519.106 253.08C519.205 253.131 518.571 253.98 518.267 255.759C517.948 257.525 518.171 260.205 519.565 263.137C520.833 266.108 523.345 269.242 524.606 273.59C525.23 275.758 525.19 278.253 524.531 280.593C523.896 282.951 522.784 285.202 521.6 287.416C520.424 289.632 519.262 291.767 518.541 293.956C517.795 296.134 517.587 298.36 517.843 300.45C518.093 302.537 518.768 304.464 519.697 306.089C520.621 307.728 521.837 308.996 523.015 310.145C524.184 311.296 525.25 312.392 525.965 313.545C526.678 314.694 527.029 315.833 527.126 316.779C527.219 317.732 527.056 318.474 526.871 318.934C526.694 319.4 526.511 319.598 526.491 319.586Z" fill="black"/>
<path d="M583.514 299.799C584.915 303.372 588.733 305.746 592.57 305.756C596.408 305.766 600.099 303.578 602.234 300.389C604.369 297.2 605.008 293.128 604.312 289.354C603.997 287.646 603.421 285.939 603.62 284.214C603.902 281.767 605.683 279.746 606.293 277.36C607.392 273.063 604.25 268.524 600.161 266.805C596.072 265.086 591.381 265.617 587.109 266.81" fill="black"/>
<path d="M521.244 250.098C517.304 254.059 518.808 259.258 520.647 262.779C522.486 266.3 524.692 269.869 524.734 273.84C524.777 277.901 522.546 281.593 521.431 285.499C520.026 290.422 520.45 295.845 522.601 300.491C524.222 303.992 526.756 307.007 528.397 310.498C530.037 313.99 530.642 318.385 528.411 321.532C530.538 321.191 532.31 319.574 533.265 317.643C534.219 315.712 534.453 313.5 534.408 311.346C534.239 303.168 530.321 295.224 531.301 287.103C531.871 282.382 534.085 277.85 533.772 273.105C533.459 268.344 530.666 264.172 528.647 259.849C526.628 255.526 525.433 250.135 528.124 246.195" fill="black"/>
<path d="M530.925 234.588C526.099 235.212 521.314 237.737 518.981 242.007C516.648 246.277 517.451 252.321 521.438 255.11C525.198 257.74 530.529 256.873 534.391 254.395C537.24 252.567 539.613 249.874 540.647 246.65C541.68 243.426 541.244 239.669 539.15 237.009C537.056 234.349 533.239 233.043 530.071 234.236" fill="black"/>
<path d="M526.986 234.093C529.113 228.222 534.332 223.79 540.214 221.693C546.095 219.596 552.569 219.635 558.706 220.79C564.843 221.944 570.718 224.167 576.557 226.378C580.808 227.988 585.153 229.652 588.608 232.605C592.027 235.527 594.361 239.552 595.914 243.773C598.832 251.705 598.955 257.514 595.536 265.244C594.048 268.609 595.26 272.374 593.927 275.803C592.594 279.232 586.406 283.312 588.328 286.449" fill="black"/>
<path d="M585.268 319.587L582.716 244.331C582.6 240.96 579.924 238.238 576.555 238.065L541.655 231.225C530.566 230.655 523.969 244.628 523.87 255.731C523.761 268.067 524.112 283.132 526.065 292.226C529.992 310.512 544.257 312.095 544.257 312.095C544.258 312.058 544.66 319.231 545.034 325.673L544.438 354.018L585.268 319.587Z" fill="#FFBE9D"/>
<path d="M528.629 268.999C528.652 270.251 529.731 271.263 531.039 271.262C532.344 271.261 533.385 270.249 533.362 268.997C533.338 267.746 532.259 266.732 530.955 266.733C529.647 266.733 528.606 267.747 528.629 268.999Z" fill="black"/>
<path d="M527.489 262.184C527.799 262.477 529.519 261.053 532.065 260.923C534.606 260.756 536.546 261.964 536.806 261.637C536.934 261.492 536.605 260.951 535.759 260.403C534.927 259.857 533.53 259.357 531.944 259.449C530.359 259.543 529.057 260.199 528.322 260.838C527.573 261.481 527.337 262.054 527.489 262.184Z" fill="black"/>
<path d="M552.194 268.632C552.217 269.883 553.296 270.896 554.603 270.896C555.908 270.895 556.95 269.883 556.926 268.631C556.903 267.38 555.823 266.366 554.518 266.366C553.211 266.366 552.17 267.381 552.194 268.632Z" fill="black"/>
<path d="M552.604 262.501C552.915 262.793 554.637 261.37 557.181 261.24C559.722 261.072 561.66 262.281 561.919 261.954C562.047 261.809 561.722 261.268 560.874 260.72C560.042 260.173 558.645 259.674 557.06 259.766C555.475 259.861 554.172 260.517 553.437 261.156C552.689 261.798 552.453 262.37 552.604 262.501Z" fill="black"/>
<path d="M544.387 281.878C544.391 281.733 542.794 281.545 540.212 281.356C539.558 281.324 538.935 281.228 538.802 280.791C538.624 280.329 538.858 279.614 539.132 278.841C539.658 277.235 540.21 275.552 540.788 273.788C543.076 266.597 544.696 260.698 544.405 260.608C544.115 260.519 542.024 266.275 539.736 273.466C539.187 275.239 538.662 276.928 538.164 278.545C537.958 279.297 537.58 280.158 537.965 281.114C538.166 281.59 538.663 281.917 539.085 282.007C539.508 282.112 539.874 282.099 540.197 282.101C542.784 282.098 544.386 282.023 544.387 281.878Z" fill="black"/>
<path d="M544.258 312.096C544.258 312.096 556.71 312.225 568.604 304.171C568.604 304.171 563.058 317.19 544.504 316.463L544.258 312.096Z" fill="#EB996E"/>
<path d="M551.069 255.11C551.357 255.788 553.881 255.323 556.887 255.521C559.897 255.659 562.353 256.403 562.715 255.761C562.876 255.454 562.421 254.826 561.411 254.209C560.41 253.592 558.835 253.04 557.031 252.937C555.228 252.838 553.601 253.211 552.537 253.713C551.466 254.214 550.943 254.788 551.069 255.11Z" fill="black"/>
<path d="M528.095 255.961C528.574 256.515 530.296 255.82 532.402 255.678C534.504 255.462 536.316 255.856 536.695 255.229C536.859 254.926 536.547 254.362 535.738 253.857C534.94 253.353 533.628 252.977 532.182 253.099C530.736 253.223 529.509 253.816 528.807 254.447C528.093 255.081 527.882 255.69 528.095 255.961Z" fill="black"/>
<path d="M526.674 239.044C527.88 244.831 537.159 245.266 542.89 243.819C546.98 248.586 553.627 251.015 559.827 250.009C560.67 249.872 561.555 249.68 562.358 249.97C563.209 250.277 563.78 251.055 564.361 251.748C566.956 254.847 570.74 256.925 574.748 257.452C575.856 263.236 580.842 268.069 586.657 268.998C586.657 268.998 588.498 267.955 587.411 260.538C586.324 253.121 586.261 237.57 586.261 237.57L565.553 229.537L541.158 226.395C541.158 226.395 524.632 229.25 526.674 239.044Z" fill="black"/>
<path d="M595.242 266.097C595.08 266.131 595.199 264.056 593.697 260.985C592.938 259.478 591.716 257.756 589.827 256.352C587.958 254.95 585.41 253.872 582.528 253.747L582.205 253.733L582.108 253.417C581.208 250.524 579.634 247.39 576.856 245.229C574.178 243.107 569.952 242.213 566.663 244.092L566.119 244.403L565.872 243.804C565.787 243.596 565.694 243.372 565.601 243.147C563.388 237.939 558.025 234.819 553.205 234.613C551.981 234.567 550.827 234.694 549.64 234.912C548.463 235.109 547.203 235.29 545.986 234.95C544.756 234.599 543.877 233.761 543.139 233.03C542.4 232.27 541.725 231.602 540.953 231.109C537.816 229.097 534.466 229.37 532.531 229.971C530.522 230.601 529.631 231.448 529.567 231.35C529.543 231.321 529.756 231.116 530.195 230.749C530.662 230.43 531.364 229.935 532.397 229.568C534.377 228.822 537.896 228.366 541.369 230.459C543.139 231.44 544.269 233.533 546.226 234.077C548.189 234.588 550.595 233.441 553.247 233.607C558.442 233.782 564.186 237.059 566.608 242.721C566.709 242.966 566.809 243.211 566.902 243.437L566.111 243.149C569.938 240.993 574.569 242.062 577.499 244.404C580.506 246.791 582.102 250.129 582.992 253.154L582.572 252.824C585.667 253.01 588.346 254.219 590.286 255.755C592.246 257.297 593.464 259.155 594.179 260.755C594.903 262.367 595.151 263.742 595.246 264.668C595.334 265.599 595.282 266.096 595.242 266.097Z" fill="#353535"/>
<path d="M562.275 248.388C562.295 248.448 561.779 248.695 560.785 248.974C559.792 249.255 558.296 249.499 556.431 249.462C552.764 249.434 547.334 247.86 543.477 243.399L544.156 243.522C543.969 243.619 543.767 243.725 543.564 243.83C540.859 245.156 537.897 245.465 535.345 245.061C532.772 244.659 530.65 243.526 529.14 242.323C527.619 241.109 526.677 239.828 526.134 238.908C525.592 237.979 525.418 237.408 525.476 237.379C525.65 237.255 526.615 239.517 529.606 241.707C531.094 242.77 533.103 243.747 535.491 244.066C537.864 244.387 540.597 244.068 543.083 242.849C543.269 242.752 543.455 242.656 543.626 242.567L544.023 242.361L544.306 242.69C547.893 246.857 552.959 248.483 556.469 248.701C560.054 248.968 562.23 248.181 562.275 248.388Z" fill="#353535"/>
<path d="M551.277 238.065C551.252 238.387 548.573 238.306 545.478 239.222C542.37 240.098 540.147 241.596 539.955 241.337C539.757 241.137 541.831 239.124 545.175 238.173C548.509 237.195 551.337 237.791 551.277 238.065Z" fill="#353535"/>
<path d="M544.258 237.855C544.03 238.063 543.043 237.335 541.804 236.547C540.572 235.747 539.501 235.152 539.596 234.857C539.678 234.575 541.025 234.742 542.395 235.628C543.769 236.507 544.481 237.663 544.258 237.855Z" fill="#353535"/>
<path d="M573.524 246.962C573.425 247.269 571.05 246.643 568.116 246.908C565.178 247.131 562.939 248.141 562.791 247.855C562.624 247.626 564.818 246.073 568.025 245.819C571.23 245.539 573.651 246.708 573.524 246.962Z" fill="#353535"/>
<path d="M579.19 256.55C579.216 256.828 575.73 257.172 571.646 255.977C567.552 254.81 564.788 252.66 564.959 252.438C565.13 252.162 568.037 253.816 571.95 254.927C575.85 256.074 579.193 256.226 579.19 256.55Z" fill="#353535"/>
<path d="M592.182 262.9C591.95 263.124 590.138 261.306 587.223 260.482C584.325 259.598 581.82 260.149 581.746 259.835C581.603 259.583 584.277 258.459 587.531 259.435C590.794 260.373 592.438 262.765 592.182 262.9Z" fill="#353535"/>
<path d="M590.324 236.427C590.235 236.462 589.996 235.825 589.286 234.881C588.572 233.945 587.291 232.77 585.385 231.84C581.585 229.992 575.598 228.84 569.085 229.131C562.54 229.422 556.747 231.007 552.632 232.262C548.511 233.548 545.996 234.487 545.934 234.332C545.907 234.265 546.499 233.941 547.607 233.443C548.715 232.945 550.34 232.267 552.387 231.53C556.472 230.078 562.33 228.34 569.037 228.041C575.727 227.749 581.83 229.034 585.745 231.157C587.701 232.222 588.995 233.576 589.636 234.641C590.276 235.717 590.377 236.414 590.324 236.427Z" fill="#353535"/>
<path d="M592.387 246.338C592.183 246.422 591.615 244.107 589.254 241.299C586.955 238.495 582.64 235.455 577.194 234.22C571.73 232.999 566.559 233.475 562.906 233.926C559.232 234.404 556.964 234.845 556.929 234.679C556.9 234.551 559.103 233.844 562.789 233.163C566.449 232.514 571.744 231.887 577.437 233.156C583.139 234.446 587.61 237.756 589.856 240.817C591 242.341 591.684 243.738 592.02 244.74C592.364 245.74 592.447 246.321 592.387 246.338Z" fill="#353535"/>
<path d="M523.739 257.937C523.721 258.036 522.029 257.574 520.182 255.581C518.368 253.675 516.558 249.931 517.401 245.747C518.311 241.575 521.476 238.876 523.903 237.861C526.396 236.779 528.129 237.036 528.106 237.134C528.132 237.333 526.473 237.371 524.241 238.556C522.051 239.678 519.277 242.249 518.47 245.972C517.712 249.704 519.218 253.173 520.772 255.081C522.339 257.064 523.842 257.766 523.739 257.937Z" fill="#353535"/>
<path d="M600.631 282.658C600.528 282.491 602.396 281.504 605.036 279.523C606.325 278.513 607.768 277.149 608.754 275.27C609.754 273.421 610.078 270.989 609.072 268.774C608.122 266.558 606.265 264.911 604.327 264.169C602.357 263.424 600.363 263.482 598.788 263.816C595.587 264.533 594.024 266.077 593.911 265.898C593.869 265.851 594.198 265.432 594.955 264.842C595.717 264.273 596.925 263.52 598.606 263.066C600.266 262.611 602.444 262.446 604.674 263.225C606.892 264.013 608.994 265.829 610.075 268.344C611.233 270.856 610.806 273.758 609.64 275.747C608.5 277.792 606.889 279.177 605.494 280.145C604.083 281.113 602.858 281.728 602.009 282.137C601.157 282.539 600.667 282.723 600.631 282.658Z" fill="black"/>
<path d="M601.491 282.764C601.56 282.737 601.868 283.3 602.343 284.356C602.813 285.413 603.462 286.962 604.076 288.955C604.674 290.944 605.252 293.405 605.236 296.211C605.221 298.985 604.605 302.165 602.75 304.909C600.882 307.644 597.965 309.387 595.107 309.752C592.213 310.187 589.578 308.934 588.13 307.373C586.615 305.818 586.034 304.06 585.969 302.879C585.892 301.681 586.152 301.052 586.198 301.067C586.297 301.079 586.191 301.723 586.39 302.822C586.575 303.909 587.223 305.471 588.669 306.82C590.081 308.18 592.39 309.189 594.969 308.755C597.512 308.382 600.157 306.771 601.846 304.295C603.541 301.79 604.162 298.835 604.229 296.195C604.3 293.535 603.826 291.137 603.332 289.163C602.279 285.213 601.315 282.828 601.491 282.764Z" fill="black"/>
<path d="M572.929 248.242C570.627 252.826 572.388 258.38 574.746 262.935C577.104 267.49 580.112 272.002 580.309 277.128C580.64 285.713 572.97 293.304 574.03 301.83C574.66 306.902 578.715 311.367 583.703 312.482C579.642 309.751 579.273 303.778 580.825 299.137C582.377 294.495 589.89 282.263 590.979 277.491C594.637 261.463 593.075 259.6 587.473 253.965" fill="black"/>
<path d="M588.38 259.669C588.392 259.8 587.253 260.063 585.405 259.796C583.578 259.544 581.036 258.628 578.91 256.667C576.784 254.703 575.668 252.243 575.27 250.442C574.856 248.621 575.027 247.464 575.158 247.465C575.334 247.454 575.451 248.568 576.031 250.22C576.597 251.863 577.734 254.052 579.671 255.841C581.609 257.628 583.881 258.585 585.564 259.018C587.258 259.463 588.377 259.492 588.38 259.669Z" fill="#353535"/>
<path d="M581.706 307.383C581.681 307.413 581.487 307.288 581.135 307.017C580.787 306.744 580.309 306.287 579.787 305.618C578.773 304.291 577.578 301.958 577.618 298.854C577.624 297.319 577.992 295.615 578.865 293.998C579.744 292.389 581.09 290.996 582.432 289.585C583.79 288.177 585.085 286.661 585.899 284.768C586.73 282.895 587.141 280.752 587.045 278.58C586.949 276.401 586.328 274.332 585.289 272.546C584.271 270.743 582.956 269.177 581.708 267.67C579.135 264.703 577.093 261.678 575.895 258.915C574.664 256.155 574.237 253.704 574.164 252.03C574.095 250.347 574.295 249.43 574.35 249.437C574.582 249.398 574.028 253.259 576.616 258.582C577.88 261.232 579.89 264.079 582.499 267.003C583.77 268.497 585.144 270.087 586.245 272.002C587.37 273.898 588.07 276.183 588.167 278.531C588.271 280.881 587.819 283.194 586.905 285.218C586.009 287.267 584.557 288.92 583.179 290.304C581.803 291.706 580.51 293.01 579.676 294.46C578.854 295.902 578.465 297.453 578.412 298.881C578.274 301.767 579.28 304.024 580.145 305.369C581.045 306.723 581.777 307.305 581.706 307.383Z" fill="#353535"/>
<path d="M590.253 259.066C590.297 259.019 590.748 259.337 591.431 260.059C592.119 260.775 592.977 261.959 593.724 263.587C595.247 266.813 595.928 272.015 594.31 277.269C592.676 282.501 589.647 286.489 587.382 289.135C585.077 291.788 583.454 293.227 583.354 293.133C583.227 293.017 584.647 291.382 586.766 288.635C588.851 285.891 591.681 281.937 593.237 276.941C594.77 271.954 594.254 267.036 592.992 263.895C591.751 260.697 590.083 259.208 590.253 259.066Z" fill="#353535"/>
<path d="M513.552 396.125L503.226 377.073C502.541 375.808 501.217 375.02 499.779 375.02H426.262C424.807 375.02 423.471 375.826 422.793 377.114L495.669 426.091L527.916 429.793C528.609 428.477 528.632 426.909 527.978 425.574L513.552 396.125Z" fill="#263238"/>
<g opacity="0.3">
<path d="M591.299 439.731C578.384 434.102 563.54 433.285 551.398 426.139C546.756 423.406 542.645 419.817 537.898 417.271C533.151 414.725 527.385 413.295 522.375 415.276C517.365 417.256 513.568 424.777 516.166 429.497C517.16 432.011 521.91 434.37 524.604 434.139C527.298 433.908 529.849 432.798 532.531 432.458C538.291 431.728 543.824 434.57 549.018 437.164C560.207 442.752 571.782 447.57 583.632 451.571C586.4 452.506 589.306 453.408 592.195 452.977C595.084 452.546 597.929 450.365 598.121 447.45C598.363 443.789 594.663 441.197 591.299 439.731Z" fill="black"/>
</g>
<path d="M527.914 429.793L502.132 379.309C501.444 377.962 500.059 377.114 498.546 377.114H422.438L450.793 428.185L527.914 429.793Z" fill="#455A64"/>
<path d="M468.254 395.275C469.317 396.126 470.869 395.955 471.72 394.893C472.572 393.831 472.4 392.279 471.338 391.428C470.276 390.577 468.723 390.748 467.872 391.81C467.02 392.872 467.192 394.424 468.254 395.275Z" fill="#EBEBEB"/>
<path d="M535.228 403.453L527.569 397.539C524.423 393.636 519.68 391.367 514.668 391.367H510.496L507.649 394.57C507.649 394.57 487.226 395.46 486.473 397.979L486.455 398.792L486.444 399.268L503.912 400.442C503.912 400.442 489.052 400.396 488.163 400.429C487.184 400.465 484.016 400.18 484.081 401.924C484.134 403.358 485.83 404.488 488.399 404.863C489.455 405.018 502.327 406.136 502.327 406.136C502.327 406.136 488.812 406.007 488.158 406.003C486.57 405.995 486.771 408.542 487.715 408.861C488.461 409.113 506.608 414.409 506.608 414.409C506.608 414.409 503.556 416.455 501.066 416.277C498.575 416.099 494.304 412.896 493.414 414.409C492.524 415.922 492.703 416.811 493.237 417.167C493.771 417.523 499.642 420.548 501.599 421.081C503.556 421.615 519.534 424.144 519.534 424.144L532.787 422.446L535.228 403.453Z" fill="#FFBE9D"/>
<path d="M500.695 394.815C500.694 394.691 503.904 394.574 507.862 394.553C511.821 394.532 515.031 394.616 515.031 394.739C515.032 394.863 511.824 394.98 507.864 395.001C503.907 395.022 500.696 394.939 500.695 394.815Z" fill="#EB996E"/>
<path d="M535.228 403.453L591.451 414.154L597.091 343.466C597.091 343.466 612.254 330.713 620.275 339.415C628.296 348.116 628.889 358.414 628.375 363.546C627.861 368.677 622.753 429.084 618.515 439.307C612.588 453.6 597.41 452.832 593.171 451.793C588.932 450.754 528.452 422.152 528.452 422.152L535.228 403.453Z" fill="#FFBE9D"/>
<path d="M595.021 343.1C593.04 359.062 589.146 383.486 588.927 399.569C588.927 400.221 627.596 403.453 627.596 403.453C627.596 403.453 629.611 367.038 628.155 355.966C626.502 343.4 617.098 334.738 617.098 334.738H604.964L595.021 343.1Z" fill="#DC2C2F"/>
<path d="M627.596 403.453C627.594 403.47 627.324 403.461 626.812 403.426C626.253 403.382 625.506 403.323 624.57 403.249C622.571 403.068 619.765 402.814 616.312 402.501C609.286 401.816 599.638 400.875 588.903 399.828L588.652 399.804L588.669 399.551C588.703 399.055 588.739 398.521 588.775 397.984C589.556 386.866 590.262 376.805 590.778 369.46C591.057 365.851 591.283 362.913 591.445 360.82C591.532 359.838 591.601 359.057 591.653 358.473C591.706 357.937 591.742 357.656 591.76 357.657C591.778 357.658 591.777 357.942 591.758 358.48C591.731 359.066 591.694 359.85 591.648 360.834C591.527 362.929 591.356 365.871 591.147 369.485C590.67 376.833 590.017 386.898 589.296 398.021C589.26 398.558 589.223 399.092 589.19 399.588L588.957 399.311C599.685 400.42 609.328 401.417 616.35 402.143C619.797 402.523 622.596 402.833 624.591 403.053C625.524 403.167 626.268 403.257 626.825 403.325C627.331 403.392 627.598 403.436 627.596 403.453Z" fill="#263238"/>
</svg>
