<svg width="592" height="640" viewBox="0 0 592 640" fill="none" xmlns="http://www.w3.org/2000/svg">
<rect width="592" height="640" rx="17" fill="#E5F5F4"/>
<path d="M282.406 548.595H56.0941C52.4058 548.595 49.4043 545.595 49.4043 541.905V98.0935C49.4043 94.4052 52.4058 91.4037 56.0941 91.4037H282.406C286.093 91.4037 289.095 94.4052 289.095 98.0935V541.905C289.095 545.595 286.093 548.595 282.406 548.595ZM56.0941 91.6979C52.5663 91.6979 49.6973 94.567 49.6973 98.0947V541.906C49.6973 545.434 52.5663 548.303 56.0941 548.303H282.406C285.933 548.303 288.802 545.434 288.802 541.906V98.0935C288.802 94.567 285.933 91.6967 282.406 91.6967L56.0941 91.6979Z" fill="#EBEBEB"/>
<path d="M535.906 548.595H309.594C305.907 548.595 302.905 545.595 302.905 541.905V98.0935C302.905 94.4052 305.907 91.4037 309.594 91.4037H535.906C539.595 91.4037 542.596 94.4052 542.596 98.0935V541.905C542.596 545.595 539.594 548.595 535.906 548.595ZM309.594 91.6979C306.067 91.6979 303.198 94.567 303.198 98.0947V541.906C303.198 545.434 306.067 548.303 309.594 548.303H535.906C539.434 548.303 542.303 545.434 542.303 541.906V98.0935C542.303 94.567 539.434 91.6967 535.906 91.6967L309.594 91.6979Z" fill="#EBEBEB"/>
<path d="M135.499 224.185L137.394 228.025L141.631 228.641L138.565 231.63L139.29 235.85L135.499 233.858L131.709 235.85L132.433 231.63L129.366 228.641L133.604 228.025L135.499 224.185Z" fill="#EBEBEB"/>
<path d="M514.819 404.95L516.714 408.79L520.951 409.406L517.885 412.395L518.609 416.615L514.819 414.623L511.028 416.615L511.752 412.395L508.686 409.406L512.924 408.79L514.819 404.95Z" fill="#F5F5F5"/>
<path d="M439.686 516.387L441.581 520.227L445.819 520.842L442.752 523.832L443.476 528.052L439.686 526.06L435.896 528.052L436.62 523.832L433.553 520.842L437.791 520.227L439.686 516.387Z" fill="#F5F5F5"/>
<path d="M267.808 156.1L268.511 157.526L270.084 157.754C270.476 157.812 270.634 158.293 270.349 158.571L269.211 159.681L269.479 161.248C269.546 161.639 269.136 161.937 268.785 161.753L267.378 161.014L265.97 161.753C265.619 161.938 265.208 161.639 265.276 161.248L265.545 159.681L264.407 158.571C264.123 158.294 264.279 157.812 264.672 157.754L266.244 157.526L266.948 156.1C267.125 155.744 267.632 155.744 267.808 156.1Z" fill="#EBEBEB"/>
<path d="M74.2307 498.153L74.9339 499.579L76.5067 499.807C76.8993 499.865 77.0564 500.346 76.7716 500.624L75.6336 501.734L75.902 503.301C75.9688 503.692 75.5586 503.99 75.2081 503.806L73.8006 503.066L72.393 503.806C72.0414 503.99 71.6312 503.692 71.6992 503.301L71.9676 501.734L70.8296 500.624C70.5459 500.347 70.7018 499.865 71.0944 499.807L72.6673 499.579L73.3704 498.153C73.5474 497.797 74.0549 497.797 74.2307 498.153Z" fill="#F5F5F5"/>
<path d="M105.849 141.037L106.552 142.462L108.125 142.69C108.518 142.748 108.675 143.23 108.39 143.507L107.252 144.617L107.52 146.184C107.587 146.576 107.177 146.873 106.825 146.688L105.418 145.949L104.011 146.688C103.66 146.873 103.25 146.574 103.316 146.184L103.585 144.617L102.447 143.507C102.163 143.231 102.319 142.748 102.712 142.69L104.284 142.462L104.988 141.037C105.166 140.68 105.673 140.68 105.849 141.037Z" fill="#EBEBEB"/>
<path d="M103.945 423.51C103.945 424.369 103.249 425.065 102.39 425.065C101.531 425.065 100.835 424.369 100.835 423.51C100.835 422.651 101.531 421.955 102.39 421.955C103.248 421.955 103.945 422.651 103.945 423.51Z" fill="#EBEBEB"/>
<path d="M326.086 228.46C326.086 229.319 325.39 230.015 324.531 230.015C323.672 230.015 322.976 229.319 322.976 228.46C322.976 227.601 323.672 226.905 324.531 226.905C325.39 226.905 326.086 227.601 326.086 228.46Z" fill="#EBEBEB"/>
<path d="M245.261 142.325C245.261 143.184 244.565 143.88 243.706 143.88C242.847 143.88 242.15 143.184 242.15 142.325C242.15 141.466 242.847 140.77 243.706 140.77C244.565 140.77 245.261 141.467 245.261 142.325Z" fill="#F5F5F5"/>
<path d="M247.761 522.167C252.39 521.074 255.256 516.436 254.163 511.807C253.07 507.178 248.432 504.312 243.803 505.405C239.174 506.498 236.308 511.136 237.401 515.765C238.494 520.394 243.132 523.26 247.761 522.167Z" fill="#F0F0F0"/>
<path d="M242.788 508.797C240.959 508.797 239.26 509.384 237.877 510.391C237.42 511.446 237.162 512.606 237.162 513.825C237.162 518.584 241.018 522.428 245.776 522.428C247.382 522.428 248.894 521.982 250.183 521.21C250.171 521.198 250.171 521.198 250.183 521.198C250.828 520.003 251.191 518.643 251.191 517.19C251.191 512.56 247.429 508.797 242.788 508.797Z" fill="#E6E6E6"/>
<path d="M176.081 364.12H104.759V331.919L176.081 247.14H210.204V333.745H227.889V364.12H210.204V390.457H176.081V364.12ZM176.081 333.745V289.399L138.394 333.745H176.081Z" fill="#00878C"/>
<path d="M240.098 319.423C240.098 292.638 244.918 273.896 254.564 263.193C264.208 252.492 278.897 247.14 298.636 247.14C308.118 247.14 315.905 248.311 321.992 250.649C328.08 252.989 333.047 256.032 336.891 259.78C340.735 263.53 343.763 267.47 345.974 271.603C348.185 275.736 349.963 280.559 351.309 286.071C353.935 296.58 355.249 307.538 355.249 318.944C355.249 344.511 350.923 363.225 342.273 375.078C333.621 386.934 318.722 392.86 297.576 392.86C285.72 392.86 276.14 390.968 268.836 387.188C261.53 383.409 255.538 377.865 250.861 370.56C247.462 365.37 244.82 358.273 242.932 349.27C241.041 340.266 240.098 330.318 240.098 319.423ZM278.931 319.519C278.931 337.463 280.516 349.718 283.688 356.287C286.86 362.855 291.458 366.139 297.481 366.139C301.454 366.139 304.899 364.746 307.815 361.958C310.731 359.171 312.877 354.766 314.256 348.742C315.633 342.719 316.322 333.33 316.322 320.578C316.322 301.868 314.736 289.291 311.565 282.851C308.392 276.41 303.635 273.19 297.29 273.19C290.817 273.19 286.14 276.475 283.255 283.043C280.372 289.611 278.931 301.771 278.931 319.519Z" fill="#00878C"/>
<path d="M438.683 364.12H367.361V331.919L438.683 247.14H472.806V333.745H490.492V364.12H472.806V390.457H438.683V364.12ZM438.683 333.745V289.399L400.998 333.745H438.683Z" fill="#00878C"/>
<g opacity="0.3">
<path d="M238.516 197.664C238.516 198.871 237.537 199.85 236.33 199.85C235.123 199.85 234.145 198.871 234.145 197.664C234.145 196.457 235.123 195.479 236.33 195.479C237.537 195.479 238.516 196.457 238.516 197.664Z" fill="#00878C"/>
<path d="M88.5164 281.854C89.3727 281.854 90.0669 281.16 90.0669 280.303C90.0669 279.447 89.3727 278.753 88.5164 278.753C87.66 278.753 86.9658 279.447 86.9658 280.303C86.9658 281.16 87.66 281.854 88.5164 281.854Z" fill="#00878C"/>
<path d="M344.115 507.785C345.34 507.785 346.334 506.792 346.334 505.566C346.334 504.341 345.34 503.348 344.115 503.348C342.89 503.348 341.896 504.341 341.896 505.566C341.896 506.792 342.89 507.785 344.115 507.785Z" fill="#00878C"/>
<path d="M397.376 417.655C398.232 417.655 398.926 416.96 398.926 416.104C398.926 415.248 398.232 414.553 397.376 414.553C396.519 414.553 395.825 415.248 395.825 416.104C395.825 416.96 396.519 417.655 397.376 417.655Z" fill="#00878C"/>
<path d="M500.131 139.065C500.131 139.922 499.438 140.616 498.581 140.616C497.724 140.616 497.03 139.922 497.03 139.065C497.03 138.209 497.724 137.515 498.581 137.515C499.438 137.515 500.131 138.209 500.131 139.065Z" fill="#00878C"/>
<path d="M205.468 107.825C205.468 108.681 204.774 109.375 203.918 109.375C203.061 109.375 202.367 108.681 202.367 107.825C202.367 106.968 203.061 106.274 203.918 106.274C204.774 106.274 205.468 106.968 205.468 107.825Z" fill="#00878C"/>
<path d="M328.459 189.048C329.315 189.048 330.009 188.354 330.009 187.497C330.009 186.641 329.315 185.947 328.459 185.947C327.602 185.947 326.908 186.641 326.908 187.497C326.908 188.354 327.602 189.048 328.459 189.048Z" fill="#00878C"/>
</g>
<path d="M168.525 189.054C182.707 189.054 194.204 177.557 194.204 163.375C194.204 149.193 182.707 137.697 168.525 137.697C154.343 137.697 142.847 149.193 142.847 163.375C142.847 177.557 154.343 189.054 168.525 189.054Z" fill="#00878C"/>
<path opacity="0.7" d="M168.525 189.054C182.707 189.054 194.204 177.557 194.204 163.375C194.204 149.193 182.707 137.697 168.525 137.697C154.343 137.697 142.847 149.193 142.847 163.375C142.847 177.557 154.343 189.054 168.525 189.054Z" fill="white"/>
<path opacity="0.2" d="M159.675 144.001C156.076 144.001 152.659 144.745 149.548 146.075C145.387 150.638 142.849 156.715 142.849 163.376C142.849 177.554 154.342 189.048 168.52 189.048C172.131 189.048 175.572 188.304 178.697 186.962C178.697 186.962 178.697 186.962 178.697 186.95C182.833 182.386 185.358 176.334 185.358 169.685C185.359 155.495 173.866 144.001 159.675 144.001Z" fill="#00878C"/>
<path opacity="0.2" d="M157.123 150.79C157.123 152.086 156.071 153.138 154.775 153.138C153.479 153.138 152.428 152.086 152.428 150.79C152.428 149.494 153.479 148.443 154.775 148.443C156.071 148.443 157.123 149.494 157.123 150.79Z" fill="#00878C"/>
<path opacity="0.2" d="M184.735 148.443C184.735 149.739 183.684 150.79 182.388 150.79C181.091 150.79 180.04 149.739 180.04 148.443C180.04 147.146 181.091 146.095 182.388 146.095C183.684 146.096 184.735 147.146 184.735 148.443Z" fill="#00878C"/>
<path opacity="0.2" d="M180.04 165.18C180.04 167.301 178.321 169.022 176.198 169.022C174.077 169.022 172.356 167.301 172.356 165.18C172.356 163.059 174.076 161.338 176.198 161.338C178.32 161.338 180.04 163.059 180.04 165.18Z" fill="#00878C"/>
<path opacity="0.2" d="M167.833 176.132C167.833 178.969 165.533 181.267 162.698 181.267C159.862 181.267 157.563 178.967 157.563 176.132C157.563 173.296 159.863 170.998 162.698 170.998C165.533 170.998 167.833 173.297 167.833 176.132Z" fill="#00878C"/>
<path d="M472.863 473.185C475.723 461.074 468.223 448.937 456.112 446.078C444.001 443.218 431.865 450.717 429.005 462.828C426.145 474.94 433.645 487.076 445.756 489.935C457.867 492.795 470.003 485.296 472.863 473.185Z" fill="#00878C"/>
<path opacity="0.3" d="M472.863 473.185C475.723 461.074 468.223 448.937 456.112 446.078C444.001 443.218 431.865 450.717 429.005 462.828C426.145 474.94 433.645 487.076 445.756 489.935C457.867 492.795 470.003 485.296 472.863 473.185Z" fill="white"/>
<path opacity="0.4" d="M465.159 450.489C463.109 449.867 460.926 449.538 458.668 449.538C446.223 449.538 436.132 459.629 436.132 472.073C436.132 479.126 439.365 485.409 444.441 489.545C446.491 490.167 448.675 490.497 450.933 490.497C463.378 490.497 473.468 480.406 473.468 467.961C473.468 460.91 470.235 454.614 465.159 450.489Z" fill="#00878C"/>
<path d="M429.409 474.643C405.343 485.967 423.296 494.695 457.2 482.511C488.591 471.229 500.525 456.997 472.497 461.408C473.943 467.394 434.627 482.713 429.409 474.643Z" fill="#00878C"/>
<path opacity="0.2" d="M464.881 247.137C433.366 268.432 392.569 296.513 381.306 364.114H378.903C389.862 297.334 429.17 268.514 460.697 247.137H464.881Z" fill="black"/>
<path d="M301.882 458.609C281.993 458.61 262.258 449.629 252.674 434.951C246.752 425.881 239.876 406.882 260.357 381.534L262.181 383.008C247.692 400.938 245.013 418.93 254.638 433.67C266.351 451.612 294.012 460.633 317.609 454.213C341.785 447.634 356.463 426.604 357.88 396.518C362.726 293.608 417.399 261.907 457.32 238.76C482.122 224.38 500.041 213.989 496.102 192.07C495.556 189.029 494.343 186.928 492.395 185.647C487.294 182.285 477.332 184.608 465.798 187.297C443.171 192.567 412.184 199.787 393.723 168.388L395.744 167.199C413.331 197.112 442.128 190.405 465.266 185.013C477.326 182.204 487.741 179.777 493.685 183.687C496.198 185.342 497.744 187.948 498.41 191.655C502.64 215.192 483.159 226.487 458.495 240.788C419.041 263.664 365.007 294.994 360.221 396.627C358.753 427.797 343.446 449.61 318.223 456.474C312.908 457.92 307.387 458.608 301.882 458.609Z" fill="#00878C"/>
<path opacity="0.2" d="M301.882 458.609C281.993 458.61 262.258 449.629 252.674 434.951C246.752 425.881 239.876 406.882 260.357 381.534L262.181 383.008C247.692 400.938 245.013 418.93 254.638 433.67C266.351 451.612 294.012 460.633 317.609 454.213C341.785 447.634 356.463 426.604 357.88 396.518C362.726 293.608 417.399 261.907 457.32 238.76C482.122 224.38 500.041 213.989 496.102 192.07C495.556 189.029 494.343 186.928 492.395 185.647C487.294 182.285 477.332 184.608 465.798 187.297C443.171 192.567 412.184 199.787 393.723 168.388L395.744 167.199C413.331 197.112 442.128 190.405 465.266 185.013C477.326 182.204 487.741 179.777 493.685 183.687C496.198 185.342 497.744 187.948 498.41 191.655C502.64 215.192 483.159 226.487 458.495 240.788C419.041 263.664 365.007 294.994 360.221 396.627C358.753 427.797 343.446 449.61 318.223 456.474C312.908 457.92 307.387 458.608 301.882 458.609Z" fill="white"/>
<path d="M369.553 140.624C377.587 140.478 385.471 143.125 385.471 143.125C385.471 143.125 398.322 165.125 399.889 170.16C399.348 175.129 390.964 183.276 390.964 183.276L369.553 140.624Z" fill="#00878C"/>
<path opacity="0.3" d="M369.553 140.624C377.587 140.478 385.471 143.125 385.471 143.125C385.471 143.125 398.322 165.125 399.889 170.16C399.348 175.129 390.964 183.276 390.964 183.276L369.553 140.624Z" fill="white"/>
<path d="M407.738 247.492C402.89 241.341 398.131 235.076 394.19 228.289C393.206 226.593 392.273 224.865 391.391 223.114C390.889 222.119 390.404 221.116 389.933 220.106C389.521 219.223 388.613 217.923 388.522 216.96C387.114 202.109 392.198 191.176 387.317 179.255L368.013 186.799C368.013 186.799 369.655 208.038 373.402 220.743C375.727 228.626 380.99 235.451 386.063 241.765C387.65 243.741 389.179 245.762 390.762 247.74C392.261 249.613 393.941 251.331 395.443 253.195C397.725 256.023 398.485 258.722 396.75 262.056C396.658 262.234 396.56 262.411 396.461 262.587C395.968 263.456 398.273 264.44 399.72 262.612C402.113 259.587 401.737 259.773 403.777 257.194C405.016 255.628 406.439 253.937 407.667 252.467C408.867 251.034 408.894 248.959 407.738 247.492Z" fill="#00878C"/>
<path opacity="0.7" d="M407.738 247.492C402.89 241.341 398.131 235.076 394.19 228.289C393.206 226.593 392.273 224.865 391.391 223.114C390.889 222.119 390.404 221.116 389.933 220.106C389.521 219.223 388.613 217.923 388.522 216.96C387.114 202.109 392.198 191.176 387.317 179.255L368.013 186.799C368.013 186.799 369.655 208.038 373.402 220.743C375.727 228.626 380.99 235.451 386.063 241.765C387.65 243.741 389.179 245.762 390.762 247.74C392.261 249.613 393.941 251.331 395.443 253.195C397.725 256.023 398.485 258.722 396.75 262.056C396.658 262.234 396.56 262.411 396.461 262.587C395.968 263.456 398.273 264.44 399.72 262.612C402.113 259.587 401.737 259.773 403.777 257.194C405.016 255.628 406.439 253.937 407.667 252.467C408.867 251.034 408.894 248.959 407.738 247.492Z" fill="white"/>
<path opacity="0.3" d="M403.018 241.38C400.434 244.503 395.18 248.555 392.864 250.197C393.368 250.758 393.867 251.331 394.368 251.904C399.136 248.79 402.905 244.751 404.335 243.11C403.893 242.541 403.456 241.96 403.018 241.38Z" fill="#00878C"/>
<path opacity="0.3" d="M407.733 247.494C407.689 247.433 407.642 247.384 407.597 247.324C406.784 248.172 406.211 249.523 406.115 251.04C406.037 252.087 406.213 253.046 406.557 253.795C406.947 253.343 407.311 252.895 407.669 252.469C408.874 251.035 408.89 248.962 407.733 247.494Z" fill="#00878C"/>
<path d="M364.963 154.691C362.944 157.628 360.563 160.522 357.491 163.122C355.967 164.429 354.226 165.611 352.315 166.614C351.35 167.107 350.336 167.533 349.287 167.886L348.496 168.14L348.241 168.22C348.056 168.276 347.869 168.327 347.682 168.371C347.328 168.451 346.973 168.505 346.659 168.531C345.389 168.627 344.469 168.446 343.711 168.258C342.214 167.85 341.215 167.305 340.269 166.776C339.337 166.238 338.519 165.687 337.744 165.119C336.218 163.958 334.838 162.791 333.551 161.547C330.961 159.074 328.664 156.51 326.531 153.653C325.558 152.351 325.825 150.508 327.127 149.536C328.132 148.785 329.46 148.773 330.459 149.405L330.548 149.462C333.314 151.218 336.105 153.07 338.827 154.727C340.202 155.538 341.545 156.354 342.866 156.989C343.515 157.317 344.152 157.616 344.726 157.828C345.285 158.046 345.843 158.17 345.988 158.141C346.049 158.137 345.977 158.054 345.545 158.069C345.441 158.075 345.293 158.089 345.143 158.122C345.057 158.139 344.972 158.161 344.888 158.188C344.807 158.215 344.922 158.166 344.929 158.159L345.317 157.96C345.832 157.698 346.327 157.37 346.829 157.036C347.832 156.357 348.787 155.496 349.762 154.551C351.691 152.635 353.548 150.25 355.507 147.77L355.533 147.736C357.539 145.195 361.227 144.763 363.767 146.769C366.201 148.69 366.689 152.17 364.963 154.691Z" fill="#00878C"/>
<path opacity="0.7" d="M364.963 154.691C362.944 157.628 360.563 160.522 357.491 163.122C355.967 164.429 354.226 165.611 352.315 166.614C351.35 167.107 350.336 167.533 349.287 167.886L348.496 168.14L348.241 168.22C348.056 168.276 347.869 168.327 347.682 168.371C347.328 168.451 346.973 168.505 346.659 168.531C345.389 168.627 344.469 168.446 343.711 168.258C342.214 167.85 341.215 167.305 340.269 166.776C339.337 166.238 338.519 165.687 337.744 165.119C336.218 163.958 334.838 162.791 333.551 161.547C330.961 159.074 328.664 156.51 326.531 153.653C325.558 152.351 325.825 150.508 327.127 149.536C328.132 148.785 329.46 148.773 330.459 149.405L330.548 149.462C333.314 151.218 336.105 153.07 338.827 154.727C340.202 155.538 341.545 156.354 342.866 156.989C343.515 157.317 344.152 157.616 344.726 157.828C345.285 158.046 345.843 158.17 345.988 158.141C346.049 158.137 345.977 158.054 345.545 158.069C345.441 158.075 345.293 158.089 345.143 158.122C345.057 158.139 344.972 158.161 344.888 158.188C344.807 158.215 344.922 158.166 344.929 158.159L345.317 157.96C345.832 157.698 346.327 157.37 346.829 157.036C347.832 156.357 348.787 155.496 349.762 154.551C351.691 152.635 353.548 150.25 355.507 147.77L355.533 147.736C357.539 145.195 361.227 144.763 363.767 146.769C366.201 148.69 366.689 152.17 364.963 154.691Z" fill="white"/>
<path d="M322.118 147.032L323.492 149.336C323.492 149.336 324.541 152.402 326.64 152.969L332.328 151.127L332.044 150.648C332.046 150.65 332.05 150.65 332.052 150.65C331.323 149.54 331.401 147.4 331.658 145.619C331.914 143.839 330.99 143.776 330.308 144.219C329.914 144.474 329.635 145.286 329.315 146.162C329.035 145.776 328.735 145.405 328.396 145.067L326.658 143.336C325.908 142.59 324.707 142.556 323.916 143.259L322.507 144.511C321.79 145.148 321.627 146.206 322.118 147.032Z" fill="#00878C"/>
<path opacity="0.7" d="M322.118 147.032L323.492 149.336C323.492 149.336 324.541 152.402 326.64 152.969L332.328 151.127L332.044 150.648C332.046 150.65 332.05 150.65 332.052 150.65C331.323 149.54 331.401 147.4 331.658 145.619C331.914 143.839 330.99 143.776 330.308 144.219C329.914 144.474 329.635 145.286 329.315 146.162C329.035 145.776 328.735 145.405 328.396 145.067L326.658 143.336C325.908 142.59 324.707 142.556 323.916 143.259L322.507 144.511C321.79 145.148 321.627 146.206 322.118 147.032Z" fill="white"/>
<path d="M375.314 138.603C369.865 139.925 362.379 143.034 357.325 146.183C355.533 147.299 354.638 149.418 355.06 151.486C357.315 162.55 362.46 177.37 368.014 186.798L393.928 176.077C394.107 171.506 387.815 156.716 381.407 142.421C380.256 139.85 378.051 137.939 375.314 138.603Z" fill="#00878C"/>
<path opacity="0.8" d="M375.314 138.603C369.865 139.925 362.379 143.034 357.325 146.183C355.533 147.299 354.638 149.418 355.06 151.486C357.315 162.55 362.46 177.37 368.014 186.798L393.928 176.077C394.107 171.506 387.815 156.716 381.407 142.421C380.256 139.85 378.051 137.939 375.314 138.603Z" fill="white"/>
<path opacity="0.3" d="M385.419 151.483L380.276 149.759C381.427 152.767 385.589 156.581 388.516 158.821C387.551 156.47 386.506 154.012 385.419 151.483Z" fill="#00878C"/>
<path d="M373.606 126.995C371.467 122.915 366.839 120.862 361.282 121.326C356.596 121.718 352.44 126.502 352.933 129.087C353.426 131.672 357.369 132.767 358.083 133.665L354.833 136.021C353.216 137.194 352.899 139.474 354.135 141.045C355.502 142.782 357.303 144.596 358.352 145.877C367.334 145.644 373.977 142.217 376.37 138.92C375.51 134.726 375.734 131.053 373.606 126.995Z" fill="#00878C"/>
<path opacity="0.8" d="M373.606 126.995C371.467 122.915 366.839 120.862 361.282 121.326C356.596 121.718 352.44 126.502 352.933 129.087C353.426 131.672 357.369 132.767 358.083 133.665L354.833 136.021C353.216 137.194 352.899 139.474 354.135 141.045C355.502 142.782 357.303 144.596 358.352 145.877C367.334 145.644 373.977 142.217 376.37 138.92C375.51 134.726 375.734 131.053 373.606 126.995Z" fill="white"/>
<path d="M369.204 129.522C370.988 134.088 368.734 139.235 364.168 141.019C359.602 142.803 354.454 140.549 352.671 135.983C350.887 131.418 353.141 126.27 357.707 124.486C362.272 122.702 367.419 124.957 369.204 129.522Z" fill="#263238"/>
<path d="M445.299 235.143C445.168 231.288 445.002 231.673 444.89 228.387C444.822 226.391 444.813 224.181 444.8 222.266C444.788 220.396 443.467 218.797 441.635 218.425C440.082 218.11 438.524 217.81 436.974 217.479C434.951 217.048 432.952 216.584 430.965 216.007C429.425 215.56 427.898 215.066 426.388 214.522C424.771 213.94 423.176 213.301 421.596 212.624C419.749 211.831 417.924 210.988 416.113 210.118C414.092 209.148 412.085 208.144 410.086 207.128C402.373 194.359 402.206 185.945 393.929 176.076L376.161 184.114C376.161 184.114 389.216 207.278 398.107 217.1C403.225 222.752 411.254 225.3 418.415 227.149C423.581 228.483 428.82 229.504 434.065 230.467C436.104 230.841 438.32 230.987 440.075 232.204C441.457 233.163 442.172 234.66 442.58 236.25C442.663 236.575 442.733 236.903 442.796 237.233C442.984 238.214 445.378 237.474 445.299 235.143Z" fill="#00878C"/>
<path opacity="0.8" d="M445.299 235.143C445.168 231.288 445.002 231.673 444.89 228.387C444.822 226.391 444.813 224.181 444.8 222.266C444.788 220.396 443.467 218.797 441.635 218.425C440.082 218.11 438.524 217.81 436.974 217.479C434.951 217.048 432.952 216.584 430.965 216.007C429.425 215.56 427.898 215.066 426.388 214.522C424.771 213.94 423.176 213.301 421.596 212.624C419.749 211.831 417.924 210.988 416.113 210.118C414.092 209.148 412.085 208.144 410.086 207.128C402.373 194.359 402.206 185.945 393.929 176.076L376.161 184.114C376.161 184.114 389.216 207.278 398.107 217.1C403.225 222.752 411.254 225.3 418.415 227.149C423.581 228.483 428.82 229.504 434.065 230.467C436.104 230.841 438.32 230.987 440.075 232.204C441.457 233.163 442.172 234.66 442.58 236.25C442.663 236.575 442.733 236.903 442.796 237.233C442.984 238.214 445.378 237.474 445.299 235.143Z" fill="white"/>
<path opacity="0.3" d="M436.288 217.333C435.589 217.179 434.878 217.022 434.172 216.855C434.227 220.902 432.329 227.891 431.632 230.009C432.371 230.149 433.121 230.292 433.861 230.432C435.918 224.871 436.241 218.984 436.288 217.333Z" fill="#00878C"/>
<path opacity="0.3" d="M444.798 222.267C444.785 220.393 443.469 218.797 441.641 218.422C441.273 218.347 440.893 218.267 440.522 218.204C440.6 219.305 441.284 220.584 442.431 221.599C443.182 222.276 444.031 222.726 444.812 222.938C444.8 222.705 444.799 222.486 444.798 222.267Z" fill="#00878C"/>
<path d="M367.546 129.597C368.02 131.374 366.032 133.242 364.44 131.705C363.148 130.458 361.203 128.37 359.615 127.377C357.983 126.356 360.159 124.58 362.721 125.269C365.113 125.913 367.071 127.819 367.546 129.597Z" fill="white"/>
<path d="M367.681 186.228C366.855 186.533 368.364 187.934 368.364 187.934C368.364 187.934 384.737 182.324 394.728 176.547C394.813 175.339 393.934 174.698 393.934 174.698C393.934 174.698 381.778 181.031 367.681 186.228Z" fill="#00878C"/>
<path opacity="0.5" d="M367.681 186.228C366.855 186.533 368.364 187.934 368.364 187.934C368.364 187.934 384.737 182.324 394.728 176.547C394.813 175.339 393.934 174.698 393.934 174.698C393.934 174.698 381.778 181.031 367.681 186.228Z" fill="white"/>
<path d="M379.751 137.828C382.984 139.46 386.026 141.189 389.065 143.103C390.578 144.056 392.084 145.034 393.568 146.09C395.064 147.125 396.539 148.216 398.019 149.445L398.575 149.899L399.267 150.524C399.76 150.958 400.121 151.357 400.483 151.756C400.863 152.167 401.176 152.563 401.484 152.958C401.804 153.356 402.107 153.751 402.38 154.14C403.539 155.696 404.484 157.28 405.411 158.85C407.212 162.034 408.772 165.214 410.059 168.635C410.634 170.161 409.862 171.863 408.335 172.438C407.189 172.869 405.942 172.541 405.15 171.705L405.092 171.641C402.738 169.147 400.479 166.516 398.207 164.072C395.984 161.636 393.622 159.135 391.717 158.047C389.057 156.388 386.094 154.74 383.15 153.117L374.286 148.197L374.264 148.185C371.434 146.614 370.413 143.047 371.983 140.216C373.517 137.456 376.958 136.421 379.751 137.828Z" fill="#00878C"/>
<path opacity="0.8" d="M379.751 137.828C382.984 139.46 386.026 141.189 389.065 143.103C390.578 144.056 392.084 145.034 393.568 146.09C395.064 147.125 396.539 148.216 398.019 149.445L398.575 149.899L399.267 150.524C399.76 150.958 400.121 151.357 400.483 151.756C400.863 152.167 401.176 152.563 401.484 152.958C401.804 153.356 402.107 153.751 402.38 154.14C403.539 155.696 404.484 157.28 405.411 158.85C407.212 162.034 408.772 165.214 410.059 168.635C410.634 170.161 409.862 171.863 408.335 172.438C407.189 172.869 405.942 172.541 405.15 171.705L405.092 171.641C402.738 169.147 400.479 166.516 398.207 164.072C395.984 161.636 393.622 159.135 391.717 158.047C389.057 156.388 386.094 154.74 383.15 153.117L374.286 148.197L374.264 148.185C371.434 146.614 370.413 143.047 371.983 140.216C373.517 137.456 376.958 136.421 379.751 137.828Z" fill="white"/>
<path d="M412.887 174.365L411.892 171.874C411.892 171.874 411.337 168.682 409.353 167.792L403.446 168.721L403.652 169.237C403.65 169.236 403.647 169.235 403.644 169.235C404.19 170.445 403.776 172.547 403.244 174.264C402.712 175.982 403.615 176.19 404.358 175.859C404.787 175.668 405.19 174.91 405.642 174.095C405.859 174.521 406.097 174.935 406.378 175.32L407.823 177.302C408.447 178.156 409.628 178.379 410.52 177.808L412.107 176.792C412.917 176.275 413.245 175.257 412.887 174.365Z" fill="#00878C"/>
<path opacity="0.8" d="M412.887 174.365L411.892 171.874C411.892 171.874 411.337 168.682 409.353 167.792L403.446 168.721L403.652 169.237C403.65 169.236 403.647 169.235 403.644 169.235C404.19 170.445 403.776 172.547 403.244 174.264C402.712 175.982 403.615 176.19 404.358 175.859C404.787 175.668 405.19 174.91 405.642 174.095C405.859 174.521 406.097 174.935 406.378 175.32L407.823 177.302C408.447 178.156 409.628 178.379 410.52 177.808L412.107 176.792C412.917 176.275 413.245 175.257 412.887 174.365Z" fill="white"/>
<path opacity="0.3" d="M374.8 151.299L373.371 151.415L364.599 172.609C365.114 172.644 365.588 172.601 366.026 172.493C366.026 172.493 377.465 168.231 380.927 166.668C378.597 161.84 374.8 151.299 374.8 151.299Z" fill="#00878C"/>
<path d="M358.781 156.86C359.27 160.677 362.132 168.79 364.6 172.609C368.884 171.133 376.039 168.347 379.501 166.784C377.17 161.957 374.716 155.305 373.373 151.416C369.682 151.661 361.639 154.691 358.781 156.86Z" fill="white"/>
<path opacity="0.3" d="M367.492 161.444C367.014 163.043 365.329 163.952 363.73 163.472C362.131 162.993 361.222 161.309 361.701 159.71C362.181 158.11 363.865 157.202 365.463 157.682C367.062 158.16 367.97 159.844 367.492 161.444Z" fill="#00878C"/>
<path opacity="0.6" d="M369.734 157.406C369.577 157.93 369.025 158.228 368.501 158.071C367.977 157.914 367.679 157.362 367.835 156.838C367.992 156.314 368.544 156.016 369.068 156.173C369.593 156.329 369.891 156.881 369.734 157.406Z" fill="#00878C"/>
<path opacity="0.6" d="M372.35 156.388C372.193 156.912 371.64 157.209 371.117 157.052C370.593 156.895 370.295 156.343 370.452 155.819C370.609 155.295 371.161 154.998 371.685 155.155C372.209 155.312 372.507 155.864 372.35 156.388Z" fill="#00878C"/>
<path opacity="0.5" d="M376.037 165.515L365.199 169.798L364.544 167.667L375.381 163.383L376.037 165.515Z" fill="#00878C"/>
<path opacity="0.2" d="M316.225 328.403C315.991 337.24 315.334 344.026 314.256 348.737C312.873 354.762 310.728 359.168 307.81 361.958C304.903 364.747 301.458 366.142 297.485 366.142C291.461 366.142 286.855 362.86 283.69 356.285C283.175 355.219 282.706 354 282.272 352.64C275.58 358.395 269.345 364.677 263.614 371.427L257.391 378.764C260.754 382.175 264.575 384.976 268.841 387.191C276.143 390.965 285.718 392.863 297.578 392.863C299.665 392.863 301.68 392.805 303.638 392.687C310.81 382.069 316.752 370.654 321.335 358.676L338.739 313.296L316.225 328.403Z" fill="black"/>
<path d="M159.331 390.271C165.891 396.83 179.843 410.783 179.843 410.783L237.284 356.675C217.517 349.161 178.987 370.616 159.331 390.271Z" fill="#263238"/>
<path d="M230.863 461.803C224.303 455.243 210.351 441.29 210.351 441.29L264.458 383.851C271.973 403.616 250.519 442.147 230.863 461.803Z" fill="#263238"/>
<path d="M309.36 332.539L331.734 289.399L288.594 311.774C274.734 318.963 261.938 328.038 250.57 338.739L177.03 407.969L213.163 444.102L282.393 370.562C293.096 359.195 302.171 346.399 309.36 332.539Z" fill="#00878C"/>
<path opacity="0.6" d="M309.36 332.539L331.734 289.399L288.594 311.774C274.734 318.963 261.938 328.038 250.57 338.739L177.03 407.969L213.163 444.102L282.393 370.562C293.096 359.195 302.171 346.399 309.36 332.539Z" fill="white"/>
<path d="M263.416 372.836C271.766 372.836 278.534 366.068 278.534 357.718C278.534 349.369 271.766 342.601 263.416 342.601C255.067 342.601 248.299 349.369 248.299 357.718C248.299 366.068 255.067 372.836 263.416 372.836Z" fill="white"/>
<path d="M263.415 367.428C268.778 367.428 273.125 363.081 273.125 357.718C273.125 352.356 268.778 348.008 263.415 348.008C258.052 348.008 253.705 352.356 253.705 357.718C253.705 363.081 258.052 367.428 263.415 367.428Z" fill="#00878C"/>
<path opacity="0.3" d="M225.382 431.124L190.009 395.752L218.97 368.487L252.646 402.163L225.382 431.124Z" fill="#00878C"/>
<path d="M167.338 422.686C140.845 424.841 132.069 441.797 129.076 464.338C127.55 475.834 126.872 487.465 117.218 494.194C114.539 496.063 115.869 500.227 119.135 500.125C154.692 499.015 171.277 481.602 173.36 474.311C172.642 478.921 171.597 482.556 170.439 485.416C169.248 488.354 172.475 491.073 175.161 489.39C185.143 483.137 197.662 471.629 198.494 452.967C191.114 442.595 167.338 422.686 167.338 422.686Z" fill="#00878C"/>
<path opacity="0.2" d="M167.338 422.686C140.845 424.841 132.069 441.797 129.076 464.338C127.55 475.834 126.872 487.465 117.218 494.194C114.539 496.063 115.869 500.227 119.135 500.125C154.692 499.015 171.277 481.602 173.36 474.311C172.642 478.921 171.597 482.556 170.439 485.416C169.248 488.354 172.475 491.073 175.161 489.39C185.143 483.137 197.662 471.629 198.494 452.967C191.114 442.595 167.338 422.686 167.338 422.686Z" fill="white"/>
<path d="M202.563 460.992L160.142 418.57L182.741 413.681L207.453 438.392L202.563 460.992Z" fill="#00878C"/>
</svg>
